<svg width="106" height="105" viewBox="0 0 106 105" fill="none" xmlns="http://www.w3.org/2000/svg">
<path d="M91.2695 28.161C93.6145 31.755 95.4084 35.5748 96.6496 39.645C97.7548 43.2693 98.3966 46.9784 98.6053 50.7754C98.9046 56.2239 98.2503 61.5448 96.6652 66.7461C95.0201 72.144 92.4416 77.0641 88.9698 81.5054C84.3281 87.4433 78.5736 91.9516 71.7377 95.0609C67.9134 96.8004 63.9126 97.9454 59.7624 98.5661C57.8498 98.8521 55.927 98.9626 53.9939 99.0141C48.8761 99.1505 43.8925 98.3903 39.0355 96.8003C32.8123 94.763 27.2845 91.5101 22.4485 87.0671C18.3 83.2557 14.9684 78.8187 12.4444 73.777C10.4708 69.8344 9.11673 65.6806 8.33369 61.3282C7.71582 57.8939 7.50195 54.4401 7.67096 50.9663C7.97126 44.794 9.4544 38.9148 12.1218 33.3399C14.5282 28.3103 17.7472 23.8749 21.7624 20.0353C26.5695 15.4383 32.1176 12.0537 38.395 9.8784C44.0626 7.9144 49.8974 7.15313 55.8615 7.50491C63.8217 7.97444 71.1745 10.3934 77.8767 14.7589C83.2657 18.269 87.7182 22.734 91.2695 28.161ZM76.1283 15.6396C74.9594 14.8994 73.743 14.247 72.5072 13.6277C67.4906 11.1137 62.1747 9.67409 56.6017 9.21872C53.2244 8.94276 49.8525 9.07736 46.4956 9.5978C42.2562 10.255 38.1935 11.4859 34.3296 13.3519C26.9252 16.9277 20.9448 22.1623 16.4371 29.0758C11.8064 36.1781 9.46482 44.0052 9.26105 52.4804C9.18498 55.6444 9.48566 58.7886 10.1054 61.8916C11.082 66.7808 12.8217 71.3878 15.3559 75.675C18.9921 81.8264 23.825 86.8176 29.8471 90.6331C35.9016 94.469 42.5113 96.6456 49.6301 97.2432C52.5219 97.486 55.415 97.4144 58.3032 97.0703C62.8259 96.5315 67.1609 95.3301 71.301 93.4278C78.0245 90.3385 83.6172 85.8112 88.1096 79.9158C91.453 75.5284 93.8671 70.6548 95.3724 65.3415C96.6329 60.892 97.152 56.3448 97 51.7141C96.9149 49.1219 96.6106 46.5623 96.0762 44.0311C95.1044 39.429 93.4454 35.0892 91.0732 31.031C87.3644 24.6861 82.4127 19.5595 76.1283 15.6396Z" fill="white"/>
<path d="M72.0925 27.4499C76.5528 30.7374 79.9632 34.8526 82.2813 39.8682C83.6426 42.8138 84.5052 45.9074 84.9127 49.13C84.9714 49.5938 85.0453 50.0557 85.1105 50.5187C85.3269 52.0557 85.172 53.562 84.7431 55.0462C84.71 55.1606 84.6768 55.2818 84.7723 55.4254C85.1255 55.4171 85.4396 55.222 85.7773 55.1206C86.5494 54.8889 86.8853 55.1529 86.8306 55.9801C86.7527 57.1588 86.4227 58.2629 85.8371 59.2883C85.7522 59.437 85.6694 59.587 85.5509 59.7982C86.2322 59.8858 86.8785 59.9221 87.5046 60.083C88.0935 60.2344 88.1383 60.303 87.8444 60.8469C86.9067 62.5823 85.4765 63.787 83.6786 64.4955C82.9471 64.7837 82.7323 65.2412 82.6695 66.0029C84.0836 65.8954 85.4795 65.8722 86.8931 66.4239C85.8502 68.3396 84.2214 69.4234 82.3067 70.2088C82.4681 70.3126 82.592 70.3924 82.7851 70.5166C81.9925 71.558 81.1392 72.5043 80.2233 73.3827C79.297 74.271 78.2025 74.9391 77.0406 75.523C77.105 75.7384 77.2962 75.7577 77.4368 75.8296C77.9304 76.0818 78.4117 76.3529 78.824 76.7293C79.2602 77.1277 79.2544 77.351 78.7979 77.7446C78.1613 78.2937 77.423 78.672 76.6514 78.9797C75.0986 79.5988 73.4944 79.962 71.8114 79.9149C71.5598 79.9079 71.2988 79.8556 70.9851 79.9798C71.3659 80.605 71.8545 81.145 72.1782 81.9221C69.9914 82.0679 67.8811 82.3376 65.7517 81.8667C65.6384 82.0667 65.9216 82.1913 65.8357 82.4602C65.1833 82.6053 64.4902 82.5711 63.8106 82.4156C62.7313 82.1685 61.6581 81.8846 60.8635 81.0207C60.7364 80.8825 60.61 80.8589 60.4555 80.966C60.1606 81.1705 59.8638 81.3724 59.4515 81.6551C61.6456 82.1909 63.7229 82.6982 65.7849 83.2018C65.7785 83.4653 65.6227 83.5315 65.4988 83.6169C64.8301 84.0777 64.1513 84.5241 63.4918 84.9978C63.2529 85.1692 63.0391 85.1904 62.7712 85.0951C62.2839 84.9217 61.7702 84.8147 61.2983 84.6087C60.5786 84.2946 59.8886 84.3378 59.1417 84.5247C57.6518 84.8974 56.1283 85.0599 54.592 85.1466C51.8846 85.2994 49.2278 85.0076 46.6036 84.3565C46.3856 84.3025 46.2001 84.3364 46.0009 84.4025C45.2973 84.636 44.5891 84.856 43.8879 85.0968C43.5883 85.1997 43.3379 85.1868 43.0676 84.9915C42.4235 84.5259 41.7582 84.0899 41.1032 83.6394C40.9792 83.5541 40.8363 83.4801 40.7795 83.2189C42.8207 82.7172 44.8483 82.2189 46.9423 81.7042C46.6259 81.3339 46.2519 81.1606 45.9193 80.9367C45.7197 80.8023 45.6109 80.9843 45.4833 81.0946C44.1476 82.2489 42.5605 82.5737 40.8566 82.509C40.7512 82.505 40.6531 82.4707 40.5899 82.3752C40.5087 82.1948 40.7003 82.0605 40.6875 81.8485C38.5527 82.3522 36.4431 82.035 34.2343 81.9282C34.5623 81.149 35.0274 80.6113 35.504 79.8658C34.6752 79.8658 33.9728 79.9317 33.2868 79.8532C31.4183 79.6393 29.6369 79.1267 28.0505 78.0616C27.8649 77.9371 27.6909 77.7914 27.5268 77.6389C27.2079 77.3427 27.223 77.0432 27.5418 76.75C28.0965 76.2399 28.7616 75.9116 29.5397 75.5476C28.6561 75.1756 27.9402 74.684 27.2187 74.1974C25.8618 73.2822 24.9221 71.957 23.8258 70.785C23.562 70.503 23.7977 70.3705 24.0591 70.1961C22.161 69.384 20.5499 68.316 19.5405 66.4427C20.2158 66.0323 20.9307 66.0247 21.6153 65.9482C22.3106 65.8705 23.0155 65.9248 23.7557 66.0026C23.6617 65.3066 23.5742 64.7995 22.8207 64.5183C21.0958 63.8746 19.7196 62.7315 18.746 61.1363C18.5944 60.8879 18.426 60.6426 18.3704 60.2892C19.1389 59.8635 20.0173 59.9128 20.8745 59.7534C20.8108 59.3521 20.5647 59.0529 20.4052 58.7188C19.9496 57.7649 19.6861 56.77 19.7285 55.706C19.7501 55.1636 19.9316 55.0284 20.4597 55.1723C20.8726 55.2847 21.277 55.4287 21.723 55.5707C21.7779 55.1234 21.6003 54.7418 21.5085 54.3529C21.115 52.6853 21.1938 51.0261 21.4882 49.3516C21.9868 46.5164 22.5796 43.7095 23.6916 41.0417C26.2934 34.8001 30.454 29.8847 36.1416 26.2801C39.7475 23.9948 43.6685 22.4986 47.8628 21.8006C52.6169 21.0093 57.3385 21.2486 61.9921 22.5674C65.6305 23.5985 68.9809 25.2299 72.0925 27.4499ZM30.2794 72.7548C31.0616 73.1833 31.8437 73.6119 32.6259 74.0405C32.182 73.1241 30.7831 72.0541 30.1871 72.0344C30.1098 72.2663 30.4465 72.4752 30.1778 72.6632C29.498 71.9061 28.8455 71.1108 27.6982 71.0943C27.4773 71.0911 27.2583 71.0046 27.0366 70.9931C26.4844 70.9644 25.9276 70.8662 25.3169 71.0017C25.4736 71.2225 25.5223 71.5112 25.8006 71.2975C26.0921 71.0737 26.3479 71.1968 26.6228 71.3014C27.828 71.7601 29.0534 72.1664 30.2794 72.7548ZM45.5948 31.6625C47.2021 30.1449 49.1293 29.269 51.2683 28.8462C51.6871 28.7634 51.8188 28.5512 51.8249 28.1801C51.832 27.7462 51.8328 27.3122 51.8368 26.8783C51.8385 26.6849 51.8566 26.499 52.0002 26.3465C52.2966 26.0318 52.5907 25.7149 52.88 25.3937C53.0688 25.1841 53.2296 25.1917 53.4502 25.3758C54.1936 25.9964 54.7986 26.6681 54.5791 27.7508C54.5488 27.9004 54.594 28.0641 54.5767 28.2182C54.5353 28.5857 54.7054 28.7467 55.0516 28.8197C56.0325 29.0266 56.9861 29.3253 57.8911 29.7663C60.1141 30.8496 61.894 32.4 62.6988 34.811C63.3598 36.7911 63.2343 38.8105 62.5631 40.7867C62.4665 41.0711 62.3681 41.297 62.7538 41.451C65.1974 42.4263 67.0805 44.1967 68.9818 45.9362C69.6089 46.51 70.0417 47.254 70.6091 47.8863C72.0187 49.4573 72.6909 51.375 73.0072 53.4355C73.1485 54.3555 73.1817 55.2862 73.2211 56.2769C75.5237 55.099 77.8142 54.8595 80.1376 56.0423C80.2484 55.7617 80.1838 55.5178 80.1935 55.2795C80.2931 52.8321 80.9764 50.6357 82.883 48.9718C83.0671 48.8112 83.1146 48.6423 83.0732 48.4222C82.9289 47.6553 82.8189 46.88 82.6353 46.1228C80.9949 39.355 77.4956 33.7401 72.0024 29.5164C64.1492 23.4779 55.3116 21.5837 45.7263 24.0319C36.8688 26.2942 30.3256 31.6357 26.1791 39.8656C24.805 42.5929 23.9371 45.4919 23.5118 48.523C23.4802 48.7478 23.5043 48.9093 23.6823 49.0757C25.5069 50.7811 26.1895 52.9554 26.2265 55.3936C26.23 55.623 26.131 55.8794 26.3651 56.1111C28.5705 54.9885 30.7719 55.2121 32.9665 56.2593C33.046 55.3476 33.0876 54.4826 33.2026 53.6276C33.5001 51.4155 34.2746 49.4201 35.7667 47.7103C36.7455 46.5886 37.7387 45.5011 38.8612 44.5165C40.1992 43.3427 41.6134 42.3087 43.2417 41.6011C43.6969 41.4032 43.7959 41.2544 43.6388 40.7415C42.6122 37.3898 42.9044 34.2948 45.5948 31.6625ZM72.5502 66.5132C72.1533 65.8476 71.9418 65.1211 71.8327 64.3573C71.7852 64.0246 71.8985 63.8582 72.2399 63.8648C73.6626 63.892 75.0735 63.993 76.3305 64.7607C76.6601 64.962 76.8898 64.9654 77.1089 64.6374C77.1952 64.5083 77.2928 64.3835 77.4026 64.2744C77.649 64.0298 77.6174 63.847 77.3312 63.6525C76.597 63.1535 76.0974 62.4556 75.7031 61.6675C75.169 60.6002 74.8785 59.4646 74.7179 58.2881C74.6464 57.7642 73.7092 56.8099 73.143 56.6855C73.1322 56.7896 73.1196 56.8916 73.1111 56.9939C72.9481 58.9621 72.3512 60.8071 71.4131 62.5227C70.4504 64.2835 68.8199 65.1973 67.0272 65.9732C64.5522 67.0443 62.0807 67.192 59.5124 66.4845C57.6158 65.962 55.7799 64.5251 55.5204 62.0278C55.4403 61.257 55.488 60.5078 55.5751 59.7483C55.6166 59.3856 55.7661 59.2354 56.1373 59.2411C57.1548 59.2568 58.1727 59.2439 59.1905 59.2478C59.3182 59.2483 59.4751 59.2007 59.5665 59.4179C59.1266 60.0938 58.9154 60.87 58.9443 61.7025C58.9641 62.2714 59.0995 62.805 59.5644 63.1905C60.4567 63.9303 61.4785 64.1325 62.5757 63.8327C64.1975 63.3895 65.099 62.1845 65.6032 60.6716C66.2894 58.6127 66.2226 56.4812 65.8291 54.394C65.1097 50.5776 63.4272 47.1752 61.0909 44.0997C60.3981 43.1877 59.5895 42.3781 58.6494 41.7133C58.5385 41.6349 58.4079 41.5694 58.3889 41.3997C59.9887 39.0888 60.2516 36.664 58.8451 34.1727C57.9409 32.5711 56.5458 31.5712 54.7869 31.0864C54.6551 31.3281 54.6862 31.5043 54.693 31.6749C54.752 33.147 54.8224 34.6186 54.8739 36.0909C54.9564 38.4484 55.0072 40.8072 55.1182 43.1632C55.1431 43.6916 55.0046 43.9747 54.5455 44.2316C53.0956 45.0428 53.1086 45.059 51.7108 44.1507C51.4552 43.9847 51.3453 43.8056 51.3588 43.4735C51.4306 41.7058 51.466 39.9367 51.5172 38.1681C51.582 35.9312 51.6503 33.6945 51.7149 31.4576C51.7182 31.3414 51.7493 31.2094 51.6171 31.131C47.7327 31.7757 44.532 37.0291 47.8122 41.4979C47.7737 41.5468 47.7416 41.6123 47.6897 41.6503C45.8963 42.9626 44.5822 44.6891 43.4783 46.5945C41.3801 50.2163 39.8813 54.0072 40.1712 58.3167C40.2263 59.1369 40.3226 59.9422 40.6038 60.7105C41.2082 62.3617 42.1924 63.6211 44.0276 63.9836C46.0271 64.3786 47.5466 62.8931 47.204 60.8851C47.1128 60.3503 46.8846 59.8762 46.6271 59.4067C46.8412 59.2432 47.0352 59.2727 47.2192 59.2717C47.9092 59.2681 48.5992 59.2698 49.2892 59.2699C50.5597 59.2702 50.6184 59.2655 50.719 60.5C50.9509 63.3471 49.8551 65.4937 47.0208 66.4335C45.4758 66.9458 43.8705 67.1699 42.2277 66.9089C40.2723 66.5983 38.4635 65.8969 36.8256 64.7994C34.7852 63.4323 34.068 61.2407 33.4215 59.0205C33.1995 58.2578 33.2146 57.4515 32.9982 56.6266C32.3033 57.1935 31.689 57.641 31.5492 58.631C31.2555 60.7102 30.5933 62.657 28.633 63.853C28.9023 64.1584 29.1664 64.4283 29.3944 64.7262C29.5744 64.9614 29.7419 64.9471 29.966 64.8085C31.2005 64.045 32.5789 63.8684 33.9878 63.8378C34.5895 63.8247 34.6419 63.8956 34.5857 64.493C34.5744 64.6132 34.5474 64.7324 34.5218 64.8507C34.1977 66.3465 33.377 67.5425 32.159 68.4018C31.3858 68.9472 30.8977 69.5184 31.0711 70.5047C31.0852 70.5849 31.0566 70.6787 31.0287 70.7594C30.9115 71.0975 31.0352 71.3156 31.3326 71.4889C31.9333 71.839 32.4518 72.2974 32.9447 72.7858C33.1276 72.967 33.2583 73.2089 33.5277 73.3612C33.5277 72.8936 33.5133 72.4945 33.5305 72.0967C33.574 71.0865 33.7093 70.093 34.1362 69.1623C34.3123 68.7784 34.5285 68.6393 34.9325 68.9365C36.1231 69.8125 37.1275 70.8392 37.6933 72.2364C37.8099 72.5244 37.965 72.6528 38.2878 72.7035C39.9769 72.9684 41.4941 73.625 42.7649 74.8051C42.9221 74.951 43.0624 75.1326 43.2854 75.1889C43.415 74.9658 43.2602 74.7012 43.5357 74.4666C46.8695 75.3976 49.6984 76.8829 50.104 80.899C50.4635 80.8474 50.4446 80.598 50.5039 80.4146C50.6973 79.817 51.028 79.3308 51.557 78.9792C53.1617 77.9128 55.2418 78.6123 55.8707 80.4378C55.9489 80.6647 55.9901 80.9295 56.3363 80.8076C56.6322 76.696 60.7175 74.7955 63.0097 74.5807C63.1674 74.7544 62.9617 75.0318 63.1923 75.2068C63.2657 75.1563 63.3447 75.118 63.4035 75.0593C64.7511 73.7143 66.3923 72.9727 68.2496 72.6916C68.5501 72.6461 68.6448 72.4575 68.7388 72.2285C69.2837 70.9011 70.2385 69.9123 71.3531 69.0654C71.9013 68.6489 72.1203 68.7238 72.3721 69.375C72.7195 70.2734 72.8863 71.2089 72.8918 72.173C72.8939 72.5445 72.8922 72.916 72.8922 73.393C73.4054 72.9045 73.7659 72.3848 74.261 72.1267C75.2949 71.5878 75.5612 70.8246 75.3425 69.7345C75.2687 69.3669 75.1944 69.1003 74.8706 68.8861C73.9529 68.2793 73.1794 67.5183 72.5502 66.5132ZM82.1758 53.5942C82.4552 52.8486 82.7321 52.102 83.0154 51.3578C83.1199 51.0834 83.2761 50.8198 83.6181 50.9452C83.9642 51.0721 83.9659 51.36 83.8587 51.6807C83.5408 52.6325 83.225 53.5856 82.9335 54.5458C82.6775 55.3889 82.4553 56.2424 82.224 57.0706C83.2174 56.6479 83.6518 55.856 83.8683 54.8681C84.0501 54.0387 84.2546 53.2108 84.3085 52.367C84.3722 51.3691 84.2137 50.3809 84.004 49.3928C82.0522 50.1809 80.4829 54.3538 81.3112 56.535C81.5991 55.5544 81.8753 54.6134 82.1758 53.5942ZM22.8101 52.4018C22.7308 52.1547 22.6494 51.9082 22.5729 51.6601C22.4793 51.357 22.4472 51.0364 22.8077 50.9168C23.1742 50.7952 23.3243 51.0871 23.4295 51.3807C23.9253 52.7637 24.5217 54.1124 24.8232 55.5618C24.8934 55.8996 25.004 56.2289 25.1139 56.627C25.8655 54.4781 24.488 50.0971 22.4476 49.4497C22.4213 49.5089 22.3874 49.5678 22.3685 49.6313C22.339 49.7307 22.313 49.8321 22.2968 49.9345C22.0003 51.8158 22.179 53.6502 22.7327 55.4729C22.9752 56.2715 23.4804 56.7549 24.2277 57.2287C23.8382 55.5557 23.3454 54.0155 22.8101 52.4018ZM75.6662 78.3845C76.4562 78.1034 77.2318 77.7946 77.8914 77.2808C77.8173 77.0285 77.64 76.9727 77.4963 76.8888C76.0367 76.0366 74.4294 75.9314 72.8009 75.9877C71.9622 76.0167 71.6379 76.7199 71.1367 77.356C71.7209 77.4061 72.1561 77.2313 72.5917 77.11C73.6604 76.8122 74.7652 76.7558 75.8526 76.5853C76.094 76.5474 76.303 76.6384 76.3924 76.8875C76.465 77.0896 76.407 77.2778 76.219 77.3816C76.0868 77.4545 75.9296 77.4949 75.7787 77.518C74.2971 77.7453 72.8293 78.0451 71.3702 78.3844C71.0077 78.4687 70.6116 78.5093 70.2728 78.7749C71.3453 79.215 73.6357 79.0475 75.6662 78.3845ZM31.1777 76.0913C30.2169 76.2705 29.2911 76.5298 28.5158 77.203C30.1642 78.6651 34.5115 79.4168 36.0961 78.7438C36.0173 78.6043 35.8716 78.6071 35.7448 78.5713C34.0528 78.0933 32.3244 77.7931 30.5947 77.4972C30.2807 77.4435 29.9366 77.3531 30.0272 76.9233C30.1057 76.5509 30.4206 76.5431 30.7326 76.5896C31.9567 76.7718 33.1937 76.8725 34.3879 77.2381C34.6307 77.3124 34.8965 77.4685 35.2204 77.2971C34.762 76.6253 34.3445 75.9864 33.4109 75.952C32.6827 75.9251 31.9729 76.0239 31.1777 76.0913ZM50.556 83.6384C52.558 83.9172 56.479 83.7286 57.2733 83.3154C54.6794 82.1345 50.5095 82.5453 49.0967 83.4816C49.5803 83.535 50.0209 83.5837 50.556 83.6384ZM45.7081 76.8661C46.7611 78.2057 47.7989 79.5588 49.0897 80.7672C49.1038 78.3019 46.7665 76.2714 44.3603 75.7507C44.3821 76.0422 44.3891 76.3238 44.6177 76.5931C45.0928 76.1061 45.3938 76.3941 45.7081 76.8661ZM58.275 79.8396C59.1306 78.8875 59.938 77.8953 60.7199 76.8814C60.8649 76.6933 60.9777 76.4664 61.2291 76.3817C61.4964 76.2917 61.6417 76.5542 61.8855 76.6424C61.9508 76.3238 62.1028 76.0653 62.0459 75.755C59.3238 76.4244 57.2736 78.5741 57.3671 80.8693C57.7047 80.4849 57.9647 80.1888 58.275 79.8396ZM78.0689 66.1295C78.1232 65.7535 78.3275 65.3865 78.1747 64.9813C77.9091 65.0345 77.7998 65.2224 77.6825 65.3843C76.6895 66.7544 76.1622 68.2778 76.2204 69.9861C76.2276 70.1997 76.1608 70.4992 76.4408 70.56C76.7458 70.6262 76.8959 70.3745 76.9807 70.1119C77.3947 68.8291 77.7813 67.5384 78.0689 66.1295ZM28.3841 64.9882C28.1681 65.0702 28.1459 65.0827 28.2081 65.3913C28.5336 67.0048 28.9288 68.5999 29.4801 70.1529C29.5629 70.3861 29.6945 70.5918 29.9462 70.5571C30.2076 70.521 30.1897 70.2452 30.1921 70.0492C30.2154 68.1614 29.7219 66.4534 28.3841 64.9882ZM37.8112 77.5168C36.4954 75.8038 35.3153 74.0098 34.5461 71.9577C34.4993 72.4324 34.4529 72.8975 34.5073 73.3503C34.7486 75.3594 35.8431 76.7885 37.5584 77.7755C37.7716 77.8982 37.8917 77.8582 37.8112 77.5168ZM68.8846 77.2807C68.794 77.4612 68.5513 77.579 68.6251 77.8523C70.4994 77.1582 72.3104 74.6244 71.9483 71.9866C71.1887 73.9317 70.1695 75.643 68.8846 77.2807ZM69.2035 75.1068C70.6719 72.9164 71.2226 71.6376 71.2888 70.2643C69.8356 71.609 68.3938 74.6649 68.7485 75.7214C68.8952 75.5234 69.0274 75.3448 69.2035 75.1068ZM76.2478 74.8041C77.6661 74.3089 79.5456 73.018 79.9597 72.234C77.9678 73.032 76.0216 73.8585 74.107 74.9491C74.8884 75.249 75.5289 75.0299 76.2478 74.8041ZM27.5195 73.296C28.5831 74.0745 29.6944 74.7543 31.0055 75.0322C31.3932 75.1144 31.7651 75.1273 32.1565 74.939C31.5262 74.3692 27.3153 72.4437 26.428 72.305C26.7323 72.6777 27.0917 72.9695 27.5195 73.296ZM24.5395 60.0502C24.0545 58.4734 23.1381 57.2781 21.5572 56.6108C21.564 56.7042 21.5523 56.7603 21.5731 56.7984C22.2597 58.0573 23.0245 59.2657 23.9068 60.3953C24.0631 60.5954 24.2684 60.7631 24.5753 60.7348C24.6721 60.527 24.6118 60.3269 24.5395 60.0502ZM28.5777 62.0259C28.4875 62.2748 28.3428 62.5097 28.3364 62.8088C29.4205 62.4179 30.6558 60.0536 30.6006 58.5242C29.915 58.7168 29.3889 59.0034 29.2927 59.8345C29.2072 60.5734 28.9059 61.2692 28.5777 62.0259ZM37.3605 75.1581C37.4727 75.2992 37.5439 75.4809 37.859 75.6481C37.4363 73.6819 36.8446 71.9623 35.3755 70.4977C35.6889 72.3502 35.6863 72.7092 37.3605 75.1581ZM83.4753 59.0544C83.9362 58.3176 84.443 57.6072 84.8406 56.7594C83.1232 57.3697 82.0981 59.1015 81.8829 60.7568C82.6769 60.4463 82.9702 59.6985 83.4753 59.0544ZM78.6106 67.9919C78.4077 68.6446 78.2047 69.2973 77.9983 69.9607C78.6402 70.0587 78.94 69.8334 79.0893 69.2464C79.2901 68.4569 79.4675 67.6654 79.5506 66.8579C79.6135 66.2474 79.5009 65.6445 79.3179 65.05C79.0378 66.0004 78.941 66.9808 78.6106 67.9919ZM65.9124 75.7547C64.8857 76.8739 63.7892 77.9311 62.9025 79.1747C65.0232 77.8423 66.7585 76.1651 67.7458 73.7585C67.5203 73.7703 67.308 73.7417 67.3698 74.0183C67.4338 74.3048 67.2849 74.4786 67.1032 74.6476C66.7244 75 66.3445 75.3513 65.9124 75.7547ZM84.1537 63.2791C84.8103 62.9145 85.4089 62.4781 85.9703 61.8488C84.4445 62.2656 81.5275 63.4983 80.9233 63.9869C82.1137 64.2456 83.1116 63.8405 84.1537 63.2791ZM24.0185 63.1853C22.8787 62.6996 21.7458 62.1946 20.4913 61.8447C21.4563 63.0779 24.3282 64.5685 25.4226 63.8921C25.0073 63.5911 24.5416 63.4184 24.0185 63.1853ZM27.5203 66.9137C27.3797 66.2671 27.357 65.5943 27.102 64.8599C26.8719 65.7872 26.8722 66.618 26.9677 67.4404C27.0514 68.161 27.219 68.8722 27.4467 69.565C27.5619 69.9156 27.8548 70.0117 28.1484 69.9443C28.4992 69.8639 28.2962 69.58 28.2431 69.3906C28.0189 68.5903 27.7768 67.7952 27.5203 66.9137ZM77.3258 60.7563C77.2348 60.4042 77.1431 60.0523 77.0531 59.6999C76.8807 59.0251 76.6751 58.8582 75.8959 58.8074C76.188 60.2704 76.6007 61.6378 77.8579 62.5825C77.885 61.9371 77.524 61.4132 77.3258 60.7563ZM42.32 77.6751C41.2964 76.5771 40.2678 75.4844 39.0557 74.4126C40.002 76.5726 41.6385 77.8925 43.4101 79.0807C43.1804 78.53 42.7136 78.1806 42.32 77.6751ZM67.0195 79.7968C68.17 80.0132 69.2143 80.5739 70.3625 80.8862C70.3448 80.6267 70.1818 80.5102 70.0587 80.3793C69.4515 79.734 68.704 79.3589 67.8551 79.1052C67.1904 78.9064 66.7562 79.1786 66.2186 79.5889C66.515 79.6663 66.7273 79.7217 67.0195 79.7968ZM38.1749 80.116C38.854 79.927 39.5332 79.738 40.2225 79.5462C39.4503 78.7538 38.6317 79.0426 37.8382 79.3377C37.077 79.6208 36.4957 80.1513 36.01 80.7793C36.0347 80.8181 36.0595 80.8568 36.0842 80.8956C36.756 80.6462 37.4278 80.3968 38.1749 80.116ZM45.7568 78.4824C45.4595 78.142 45.2811 77.7015 44.8859 77.3871C45.0002 78.9681 46.4382 80.6245 48.1166 81.1354C47.3457 80.2495 46.4568 79.5005 45.7568 78.4824ZM58.5415 80.8786C58.4977 80.9618 58.394 81.0941 58.6032 81.0498C58.747 81.0194 58.8798 80.9145 59.0066 80.8268C59.7793 80.2923 60.6747 79.8827 61.0692 78.9415C61.3247 78.3317 61.5284 77.6999 61.7553 77.0779C60.8143 78.4402 59.7609 79.6884 58.5415 80.8786ZM83.8607 66.883C82.7972 66.8753 81.7777 67.0304 80.84 67.5933C80.4192 67.8459 80.2867 68.1636 80.3982 68.6304C80.4644 68.626 80.5225 68.6388 80.5622 68.6171C81.7133 67.9909 82.8518 67.3394 84.0777 66.8604C84.0272 66.8652 83.9767 66.8701 83.8607 66.883ZM24.8527 68.0559C25.2429 68.2229 25.5687 68.5243 26.0225 68.6459C26.0859 68.2368 26.0669 67.9023 25.7007 67.6692C24.7414 67.0585 23.6991 66.8203 22.566 66.9528C23.3371 67.2473 24.0656 67.6239 24.8527 68.0559ZM77.7053 72.0904C78.3673 71.8463 79.0351 71.6168 79.689 71.3525C80.0726 71.1974 80.4322 71.0818 80.7816 71.4168C80.8695 71.3389 80.9381 71.2876 80.9946 71.2252C81.0488 71.1653 81.1394 71.1198 81.0956 70.9623C80.1084 70.8351 79.1421 71.0799 78.1615 71.2155C77.415 71.3187 77.1023 71.7967 76.8093 72.4416C77.1246 72.3191 77.3787 72.2204 77.7053 72.0904ZM25.5054 59.8783C25.5616 60.3226 25.675 60.7689 25.6602 61.2108C25.64 61.8133 25.9931 62.0838 26.4786 62.4053C26.4223 61.4492 26.5178 60.5803 26.5652 59.6686C26.1715 59.7115 25.8414 59.6046 25.5054 59.8783ZM28.4637 56.914C28.9365 56.7083 29.4239 56.544 29.9812 56.4116C28.3272 56.0245 26.4167 56.7934 25.8218 58.0585C26.686 57.6827 27.5373 57.3125 28.4637 56.914ZM75.2881 67.1172C74.5973 66.5037 73.8832 65.9216 72.9775 65.3405C73.5249 66.5961 74.317 67.425 75.3411 68.0899C75.5742 67.7392 75.6487 67.4505 75.2881 67.1172ZM32.4201 66.9476C33.0952 66.1447 33.221 65.9296 33.2991 65.4313C32.516 65.9291 31.8112 66.5087 31.128 67.1168C30.7964 67.4119 30.7964 67.7198 31.0876 68.0774C31.5682 67.7548 31.9894 67.4034 32.4201 66.9476ZM80.7384 64.9089C80.5441 64.8696 80.3287 64.8205 80.3485 65.1308C80.381 65.6426 80.4351 66.153 80.4809 66.6724C81.4767 66.4107 81.7809 66.0383 81.8343 65.0499C81.4983 65.0074 81.1597 64.9646 80.7384 64.9089ZM24.7083 65.7121C24.8383 66.3594 25.3622 66.4632 25.9333 66.6543C25.949 66.0234 26.1363 65.4811 26.0212 64.8729C25.5093 64.9279 25.0426 64.9781 24.5929 65.0265C24.5339 65.2835 24.6538 65.4515 24.7083 65.7121ZM42.4645 75.76C41.8524 75.1561 41.1769 74.6456 40.3624 74.332C41.7036 75.3914 42.7384 76.7482 43.8998 77.9865C43.6955 77.0911 43.1427 76.4271 42.4645 75.76ZM62.4516 77.9994C62.4318 78.0579 62.412 78.1164 62.3923 78.175C63.4953 76.9596 64.4983 75.6739 65.7283 74.5954C64.6515 74.8379 63.0256 76.5396 62.4516 77.9994ZM75.0317 72.6388C74.466 73.0721 73.9574 73.5607 73.522 74.1839C74.2214 73.8172 74.8642 73.449 75.5337 73.1391C76.0632 72.8939 76.192 72.4558 76.2899 71.8965C75.8122 72.079 75.4554 72.3433 75.0317 72.6388ZM27.4081 60.5394C27.368 61.0288 27.2864 61.5209 27.515 62.1165C27.9011 61.1659 28.2353 60.3152 28.4437 59.3926C27.5412 59.4552 27.5355 59.4616 27.4081 60.5394ZM22.1984 60.8748C21.7985 60.8352 21.3986 60.7955 20.9987 60.7558C22.3157 61.3074 23.5893 61.9206 24.9151 62.4135C24.1219 61.7464 23.3464 61.0596 22.1984 60.8748ZM80.6575 61.1886C80.67 60.747 80.8587 60.3236 80.8155 59.8791C79.9823 59.697 79.9032 59.7721 79.9962 60.5515C80.0367 60.8917 80.0177 61.2386 80.0437 61.581C80.0595 61.7902 79.9574 62.0265 80.162 62.2189C80.5793 62.0286 80.7585 61.7265 80.6575 61.1886ZM83.4556 68.2049C82.4956 68.682 81.5121 69.1138 80.4906 69.7377C82.1674 69.4249 83.5466 68.7785 84.8401 67.6222C84.3137 67.8427 83.9204 68.0074 83.4556 68.2049ZM66.9035 76.9561C66.5565 77.3329 66.2095 77.7096 65.8551 78.0943C67.3861 78.2512 67.6567 77.6697 67.5845 76.0393C67.3803 76.3163 67.1655 76.6078 66.9035 76.9561ZM25.3499 69.4069C24.2387 68.7875 23.1013 68.2256 21.8964 67.8108C22.9586 68.7682 24.1859 69.3769 25.6162 69.5638C25.5463 69.5223 25.4763 69.4807 25.3499 69.4069ZM39.2881 76.6608C39.1561 76.4792 39.0241 76.2977 38.8605 76.0726C38.6958 77.3151 39.2152 78.3126 40.5245 78.0692C40.1212 77.6122 39.727 77.1655 39.2881 76.6608ZM79.2168 56.8972C78.4832 56.4789 77.6831 56.4374 76.7673 56.4491C78.0531 56.8065 79.128 57.4177 80.3397 57.8861C80.0947 57.3617 79.6875 57.1493 79.2168 56.8972ZM64.8659 80.2392C64.7019 80.2068 64.538 80.1744 64.2706 80.1216C65.5309 80.9484 66.808 81.2882 68.3056 81.2015C67.1376 80.7961 66.0441 80.5143 64.8659 80.2392ZM84.6467 61.1632C84.9129 61.0569 85.1792 60.9507 85.546 60.8044C83.826 60.7394 82.6176 61.6287 81.4054 62.5092C82.4617 62.0712 83.518 61.6333 84.6467 61.1632ZM38.3943 81.0848C38.3596 81.1166 38.3249 81.1485 38.2902 81.1803C38.3046 81.1888 38.3195 81.2054 38.3332 81.2044C38.7444 81.1765 39.1568 81.1597 39.5662 81.1147C40.4405 81.0186 41.2288 80.6944 42.076 80.1217C40.7536 80.3847 39.597 80.6995 38.3943 81.0848ZM78.9555 60.8901C78.9316 60.6314 78.8998 60.3731 78.8854 60.1138C78.8567 59.5939 78.555 59.5036 78.0599 59.587C78.2652 60.329 78.4477 61.0356 78.8518 61.7415C79.0103 61.4307 78.943 61.2029 78.9555 60.8901ZM29.7438 57.5009C28.8447 57.81 27.9517 58.134 26.9811 58.5946C28.3214 58.5059 30.068 57.8429 30.5878 57.2484C30.3126 57.3287 30.0658 57.4007 29.7438 57.5009ZM30.9908 66.0217C31.3768 65.6815 31.7628 65.3413 32.2301 64.9294C31.6014 65.054 31.1098 65.2089 30.6563 65.4632C30.1711 65.7354 30.1563 65.861 30.5271 66.3652C30.6628 66.2671 30.8001 66.1677 30.9908 66.0217ZM75.9122 66.3429C76.2583 65.8627 76.2417 65.7372 75.7577 65.4691C75.2984 65.2147 74.8034 65.065 74.1522 64.9474C74.7924 65.4736 75.3211 65.9083 75.9122 66.3429ZM64.0002 81.493C63.4601 80.8576 62.6955 80.8437 61.9723 80.7148C62.5646 81.163 63.2412 81.3874 64.0002 81.493ZM43.4994 81.2207C44.149 80.9619 44.149 80.9619 44.4231 80.6522C43.764 80.8206 43.0861 80.861 42.5203 81.4013C42.8917 81.4677 43.152 81.3206 43.4994 81.2207ZM76.5729 57.5417C76.4663 57.5464 76.3818 57.3996 76.2319 57.505C77.0125 57.9222 77.8182 58.1908 78.6684 58.3333C77.9929 58.0751 77.3175 57.8169 76.5729 57.5417ZM65.9746 79.4619C66.0352 79.3619 66.1339 79.2763 66.0927 79.1117C65.7076 79.036 65.3436 79.1379 64.8281 79.2935C65.2886 79.3774 65.6022 79.4346 65.9746 79.4619ZM40.7527 79.0958C40.6252 79.1103 40.491 79.0082 40.3486 79.127C40.6126 79.6599 40.9876 79.38 41.3901 79.3034C41.1925 79.1343 41.0034 79.1351 40.7527 79.0958Z" fill="white"/>
<path d="M13.268 64.1705C13.0183 64.2807 13.0721 64.4686 13.0822 64.6366C13.0962 64.8692 12.9437 64.9263 12.7632 64.9678C12.5658 65.0133 12.4672 64.9063 12.4209 64.7404C12.2767 64.223 12.139 63.7038 12.0024 63.1844C11.9554 63.0055 12.0221 62.8808 12.1987 62.8182C12.38 62.7539 12.5631 62.7462 12.6266 62.9618C12.7342 63.3273 12.9695 63.2752 13.2375 63.2005C14.0178 62.9827 14.7995 62.7702 15.5815 62.5591C15.8528 62.4858 16.0707 62.385 16.0067 62.032C15.965 61.8021 16.1384 61.7392 16.3134 61.6914C16.5388 61.6298 16.632 61.7715 16.6867 61.9499C16.9552 62.8269 17.1053 63.738 17.4426 64.5953C17.5252 64.8053 17.3863 64.9595 17.2911 65.1216C16.7317 66.0746 16.1715 67.0272 15.534 68.1119C16.3039 67.88 16.9165 67.6377 17.5151 67.3571C17.666 67.2863 17.6832 67.1446 17.6297 66.9998C17.5289 66.7273 17.6836 66.6107 17.9045 66.5451C18.1617 66.4688 18.2402 66.6672 18.3049 66.8468C18.617 67.713 18.994 68.5475 19.447 69.3492C19.5514 69.5338 19.8109 69.7363 19.5106 69.9783C19.2479 70.19 19.0329 70.0994 18.8456 69.7994C18.2193 70.3996 17.7266 71.0344 17.1464 71.7283C18.0468 71.6518 18.8548 71.5843 19.6222 71.4099C19.7183 71.2701 19.6435 71.1758 19.6215 71.0793C19.5664 70.8388 19.7552 70.785 19.9035 70.7103C20.0847 70.6191 20.1936 70.7207 20.2734 70.8775C20.9615 72.2286 21.9392 73.3831 22.7958 74.6193C23.0141 74.9343 23.0728 75.1872 22.8226 75.4959C22.7151 75.6284 22.6527 75.797 22.5619 75.9443C22.4447 76.1347 22.3398 76.3703 22.0485 76.2492C21.7673 76.1322 21.7997 75.8983 21.8904 75.6775C22.1498 75.0455 21.9107 74.5366 21.5328 74.045C21.3437 73.7988 21.137 73.6776 20.8932 73.9224C20.6889 74.1274 20.1851 74.1695 20.3971 74.6305C20.5364 74.9334 20.727 75.2965 21.1813 75.0324C21.4326 74.8862 21.5579 75.0205 21.6804 75.216C21.8132 75.4281 21.6787 75.5318 21.5311 75.6378C21.1382 75.9198 20.7452 76.2016 20.3536 76.4855C20.2068 76.5919 20.0595 76.6943 19.9026 76.5108C19.7536 76.3367 19.6881 76.1573 19.8854 75.964C20.2079 75.648 20.0259 75.371 19.8112 75.0971C19.5558 74.7713 19.349 75.0336 19.1506 75.1639C18.3921 75.6616 18.3932 75.738 18.9721 76.4471C19.3079 76.8585 19.7547 77.0005 20.246 77.0419C20.496 77.0629 20.6976 77.1063 20.7064 77.4058C20.7152 77.7053 20.4674 77.6968 20.2753 77.75C19.2549 78.0321 19.2522 78.0338 18.627 77.1608C18.1533 76.4993 17.687 75.8324 17.2184 75.1672C17.105 75.0061 16.9945 74.8435 17.2063 74.6712C17.3673 74.5403 17.5237 74.4594 17.7028 74.647C17.942 74.8976 18.1449 74.7117 18.3393 74.5748C18.9749 74.1271 19.6084 73.6764 20.2368 73.2185C20.4094 73.0927 20.6938 72.9644 20.53 72.699C20.3712 72.442 20.2399 72.0987 19.7992 72.1626C18.7253 72.3183 17.6487 72.4585 16.5704 72.5783C16.2334 72.6157 15.793 72.8629 15.5689 72.4944C15.3171 72.0805 15.8109 71.8673 16.0201 71.6082C16.6611 70.8142 17.3176 70.0308 18.0051 69.2774C18.3483 68.9013 18.298 68.5589 18.046 68.2113C17.8092 67.8846 17.538 68.167 17.3071 68.2509C16.3833 68.5865 15.4702 68.9519 14.5508 69.3002C14.3828 69.3638 14.1992 69.4915 14.0412 69.2702C13.9065 69.0817 13.9765 68.9081 14.0776 68.738C14.5995 67.8595 15.124 66.9827 15.6433 66.1027C15.7288 65.9577 15.8616 65.8308 15.854 65.6361C15.6908 65.4636 15.5306 65.5996 15.3836 65.6521C14.9616 65.8029 14.5494 65.9819 14.1262 66.1289C13.8539 66.2235 13.6494 66.3187 13.7831 66.6746C13.8613 66.8829 13.7134 66.987 13.5328 67.0548C13.3185 67.1353 13.2007 67.0273 13.1292 66.8492C12.9678 66.4472 12.8186 66.0403 12.6597 65.6373C12.5806 65.4369 12.6472 65.3061 12.8285 65.2114C13.0077 65.1177 13.1694 65.1134 13.2594 65.3207C13.3706 65.577 13.539 65.5752 13.7634 65.4872C14.5664 65.1723 15.3666 64.8483 16.1805 64.5643C16.746 64.367 16.4551 63.9799 16.4094 63.6635C16.3563 63.2957 16.0886 63.3953 15.8477 63.4618C15.0005 63.6957 14.1517 63.9243 13.268 64.1705Z" fill="white"/>
<path d="M28.6865 83.8693C28.9246 83.5042 29.141 83.1697 29.3573 82.835C29.5007 82.6129 29.5256 82.4169 29.2467 82.2873C29.0825 82.3045 29.0739 82.4497 29.0204 82.5486C28.9239 82.7272 28.8263 82.8876 28.5835 82.7922C28.3632 82.7055 28.3196 82.5224 28.3655 82.3221C28.4557 81.9285 28.4429 81.5677 28.1469 81.2544C27.9317 81.0265 27.7452 80.9692 27.5107 81.2463C26.9406 81.9198 26.3539 82.5793 25.7707 83.2416C25.5895 83.4474 25.574 83.6358 25.7957 83.8204C25.9842 83.9773 25.964 84.1299 25.8059 84.306C25.6174 84.5159 25.461 84.4636 25.2795 84.2989C24.908 83.9619 24.5248 83.638 24.151 83.3035C23.9963 83.1651 23.8172 83.0259 24.0098 82.7841C24.1666 82.5873 24.3347 82.5414 24.5361 82.7183C24.7404 82.8978 24.9044 82.8258 25.0643 82.6413C25.6538 81.9613 26.2467 81.2842 26.8423 80.6095C27.0408 80.3846 26.993 80.213 26.7608 80.0535C26.4197 79.8192 26.0566 79.8093 25.6718 79.9123C25.4618 79.9686 25.2574 79.983 25.17 79.7063C25.0917 79.4584 25.2539 79.3665 25.4239 79.2651C26.3406 78.7182 26.325 78.7348 27.1435 79.4265C28.2608 80.3709 29.2372 81.4861 30.5013 82.2525C30.7807 82.4219 30.7697 82.6456 30.7057 82.9256C30.4899 83.8703 30.295 84.8197 30.0609 85.9131C30.8285 85.368 31.4934 84.897 32.1571 84.4242C32.9522 83.8579 32.9203 83.9125 33.7619 84.3986C34.7759 84.9842 35.8523 85.4601 36.8969 85.993C37.0873 86.0901 37.386 86.1193 37.399 86.3854C37.4201 86.8148 37.4644 87.2548 37.3386 87.6767C37.302 87.7995 37.1564 87.8267 37.029 87.8145C36.8447 87.7969 36.7506 87.671 36.7323 87.5042C36.655 86.7989 36.2125 86.4165 35.6165 86.1243C35.3 85.9691 35.1091 85.9729 34.9686 86.3175C34.8719 86.555 34.7554 86.7844 34.6376 87.0393C35.0741 87.3082 35.4491 87.7138 35.8596 87.0511C35.965 86.8808 36.14 86.9896 36.2769 87.0637C36.4414 87.1528 36.4823 87.2803 36.3973 87.4542C36.1691 87.9213 35.9469 88.3913 35.7204 88.8593C35.6415 89.0224 35.5504 89.1801 35.3287 89.0815C35.1269 88.9918 34.9573 88.8699 35.0563 88.6059C35.1774 88.2829 35.0623 88.0893 34.7636 87.9386C34.443 87.7769 34.2539 87.7993 34.0734 88.1566C33.6196 89.0548 33.7804 89.395 34.793 89.5534C35.1817 89.6142 35.5502 89.5418 35.8972 89.3657C36.1275 89.2488 36.3241 89.237 36.4747 89.4842C36.6372 89.7506 36.4074 89.8596 36.2636 89.9906C35.4525 90.7294 35.4523 90.7249 34.4674 90.2334C33.7723 89.8865 33.0725 89.5489 32.3756 89.2055C32.2025 89.1203 32.0162 89.0354 32.0918 88.7842C32.1587 88.5615 32.2775 88.4136 32.5454 88.495C32.7724 88.564 32.8972 88.4396 32.9899 88.2461C33.3717 87.4489 33.7545 86.6521 34.145 85.8592C34.2725 85.6003 34.2223 85.4369 33.9493 85.3304C33.7755 85.2625 33.6131 85.1652 33.3818 85.049C32.8065 85.9415 32.2367 86.8245 31.6682 87.7084C31.5608 87.8753 31.6383 88.0053 31.762 88.1194C31.9455 88.2886 31.8929 88.4513 31.7604 88.6209C31.5922 88.8363 31.4272 88.7274 31.2648 88.6204C30.9042 88.3826 30.5459 88.1412 30.1871 87.9006C30.0203 87.7886 29.8734 87.6709 30.0122 87.4375C30.119 87.2582 30.2328 87.1246 30.4657 87.2491C30.7122 87.3807 30.8473 87.2279 30.9694 87.0393C31.2797 86.56 31.5937 86.0831 31.8568 85.541C31.2343 85.9777 30.6122 86.4149 29.9892 86.8508C29.8476 86.9498 29.7013 87.042 29.5605 87.142C29.4156 87.2448 29.2743 87.3494 29.0949 87.2121C28.9301 87.0858 28.9415 86.9139 28.9772 86.7387C29.1672 85.8075 29.3587 84.8767 29.5732 83.8308C29.2124 84.3781 28.9082 84.8289 28.6156 85.2872C28.4586 85.5332 28.2608 85.7775 28.6089 86.0517C28.7645 86.1742 28.6463 86.3363 28.5504 86.4644C28.4395 86.6125 28.3041 86.6477 28.1459 86.5445C27.7985 86.3181 27.4514 86.0911 27.1068 85.8604C26.9502 85.7556 26.8465 85.625 26.9631 85.4259C27.0637 85.2541 27.1714 85.0855 27.4085 85.2167C27.6566 85.354 27.7942 85.213 27.9182 85.026C28.1672 84.6507 28.416 84.2752 28.6865 83.8693Z" fill="white"/>
<path d="M75.4381 22.6859C75.936 22.0403 76.4121 21.4246 76.8854 20.8067C77.0967 20.5309 77.2583 20.2553 76.9273 19.9431C76.7672 19.792 76.8228 19.6332 76.9707 19.4948C77.127 19.3486 77.2486 19.4374 77.3757 19.5434C78.3306 20.34 79.2999 21.1197 80.2383 21.9354C80.9063 22.5161 81.0584 23.178 80.7509 23.8393C80.4262 24.5375 79.6612 25.0104 78.8931 24.8795C78.3674 24.7899 78.1874 24.9126 78.157 25.4544C78.1096 26.3001 77.9804 27.1411 77.8895 27.9845C77.8651 28.21 77.8602 28.434 77.9997 28.6354C78.1082 28.7923 78.0586 28.9351 77.928 29.0501C77.7928 29.1692 77.6712 29.0912 77.5593 29.001C77.1961 28.7085 76.8337 28.4149 76.4722 28.1202C76.3226 27.9982 76.3002 27.8443 76.3251 27.6544C76.485 26.4358 76.6345 25.2159 76.7856 23.9962C76.8335 23.6105 76.9783 23.5202 77.3308 23.7474C78.0604 24.2177 78.8426 23.9989 79.2538 23.2408C79.6051 22.5931 79.3219 21.9475 78.4452 21.5002C77.7285 22.3609 76.9912 23.2251 76.2792 24.1099C75.8893 24.5943 75.5454 25.116 75.174 25.6159C75.007 25.8406 74.9667 26.0429 75.1982 26.2513C75.3764 26.4118 75.433 26.5985 75.2344 26.7857C75.0219 26.9861 74.8906 26.778 74.7549 26.6664C74.1679 26.184 73.5847 25.6968 73.005 25.2055C72.8661 25.0878 72.671 24.9735 72.8184 24.7383C72.9478 24.5319 73.1253 24.533 73.3066 24.6596C73.6034 24.867 73.794 24.681 73.9651 24.4769C74.4537 23.894 74.9326 23.3029 75.4381 22.6859Z" fill="white"/>
<path d="M55.7197 15.6245C55.7522 16.6466 55.7976 17.6166 55.8089 18.587C55.812 18.856 55.9906 19.2661 55.628 19.367C55.2503 19.4722 54.8571 19.3434 54.5747 18.9862C53.8448 18.0632 53.0931 17.1578 52.3593 16.2379C51.7567 15.4826 51.1672 14.7166 50.4906 13.8515C50.5341 15.4094 50.4869 16.8499 50.6406 18.2869C50.6698 18.5597 50.8454 18.6158 51.069 18.6378C51.2884 18.6595 51.4248 18.7856 51.4189 19.0111C51.4119 19.2802 51.2079 19.2836 51.0088 19.2824C50.4938 19.2794 49.9789 19.2794 49.464 19.277C49.2565 19.2761 49.0236 19.3029 48.9949 19.0048C48.9681 18.7276 49.1487 18.6434 49.3825 18.6338C49.6664 18.622 49.7751 18.4618 49.7722 18.1935C49.7535 16.4598 49.8168 14.7251 49.6986 12.9922C49.6739 12.6288 49.5584 12.4014 49.1698 12.363C48.9599 12.3422 48.8129 12.2358 48.8424 11.987C48.8719 11.7373 49.0592 11.7597 49.2313 11.7554C49.283 11.7541 49.3363 11.7645 49.3863 11.7554C50.538 11.5447 51.2898 12.003 51.925 13.0018C52.6556 14.1507 53.5811 15.1743 54.4262 16.249C54.5604 16.4196 54.717 16.5723 54.9698 16.8505C54.9373 15.3637 55.008 14.0356 54.8348 12.7118C54.7989 12.4375 54.5789 12.4193 54.3765 12.3772C54.1723 12.3349 54.0075 12.2498 54.0411 12.0021C54.0729 11.7673 54.2595 11.7688 54.4364 11.7693C54.9709 11.7707 55.5054 11.7731 56.0399 11.7749C56.2343 11.7755 56.4243 11.7684 56.4624 12.0386C56.5003 12.3066 56.3414 12.3794 56.1333 12.3941C55.7243 12.4231 55.6875 12.7095 55.6903 13.0227C55.6979 13.8726 55.7096 14.7226 55.7197 15.6245Z" fill="white"/>
<path d="M25.044 24.0068C24.7667 23.8614 24.6326 24.0594 24.4775 24.1845C24.3051 24.3235 24.1602 24.2822 24.0272 24.1323C23.8866 23.9737 23.9758 23.8477 24.0906 23.7269C24.4958 23.3008 24.902 22.8756 25.3046 22.447C25.4256 22.3182 25.5466 22.2498 25.7033 22.3863C25.8394 22.5049 25.8907 22.644 25.7615 22.7923C25.4276 23.1755 25.6332 23.4415 25.929 23.7146C27.1865 24.8753 28.4401 26.0405 29.6873 27.2124C29.8515 27.3668 30.2063 27.4836 30.08 27.7493C29.9341 28.0564 29.6179 28.2715 29.241 28.2648C28.4829 28.2513 27.7243 28.2327 26.9676 28.1875C25.6483 28.1087 24.3303 28.0082 22.9021 27.9092C23.9331 28.9181 24.9174 29.8263 25.9482 30.6836C26.1655 30.8643 26.3349 30.7222 26.4891 30.5747C26.6593 30.4118 26.8102 30.3997 26.9705 30.5887C27.1307 30.7777 27.0119 30.9024 26.8877 31.0331C26.5067 31.4344 26.1245 31.8345 25.7476 32.2396C25.6167 32.3803 25.4878 32.4764 25.3085 32.3224C25.1412 32.1786 25.1512 32.0169 25.2949 31.8727C25.5817 31.585 25.4545 31.3633 25.2162 31.1285C24.095 30.0237 22.944 28.9516 21.7719 27.9015C21.5167 27.6729 21.2975 27.569 21.0297 27.8674C20.8853 28.0283 20.7141 28.0803 20.5384 27.9014C20.3412 27.7006 20.4892 27.5646 20.6253 27.4213C20.947 27.0829 21.2779 26.752 21.5795 26.3961C21.7573 26.1863 21.9668 26.1979 22.19 26.2204C23.8866 26.3913 25.5853 26.5345 27.2895 26.6042C27.4582 26.6111 27.6269 26.6209 27.9471 26.6369C26.9439 25.6773 26.0529 24.8032 25.044 24.0068Z" fill="white"/>
<path d="M16.5745 34.2116C16.728 33.1579 17.173 32.2899 17.8227 31.5207C19.0511 30.0665 21.0435 30.0423 22.6545 31.4595C24.1403 32.7666 24.3929 34.5749 23.3248 36.2811C22.6259 37.3975 21.7278 38.1926 20.316 38.1471C18.2847 38.0816 16.5149 36.2446 16.5745 34.2116ZM19.0424 35.9925C19.6305 36.3707 20.255 36.6548 20.96 36.7151C21.7333 36.7812 22.3365 36.4954 22.7562 35.8263C23.1712 35.1647 23.2326 34.4866 22.8043 33.8209C22.1307 32.7742 21.11 32.2127 19.9488 31.9067C18.9937 31.6551 18.3077 31.9526 17.8194 32.7429C17.2803 33.6154 17.3287 34.3257 17.9856 35.1285C18.2631 35.4676 18.6139 35.7186 19.0424 35.9925Z" fill="white"/>
<path d="M87.7463 69.0556C87.7882 69.3196 87.9937 69.365 88.1576 69.4442C88.7168 69.7143 89.2788 69.9792 89.8456 70.2326C90.4827 70.5175 90.9994 70.3164 91.2895 69.6869C91.5894 69.0363 91.4269 68.5668 90.7627 68.2411C90.1897 67.9601 89.6049 67.7034 89.0254 67.4359C88.7949 67.3295 88.5761 67.2482 88.395 67.5314C88.2738 67.7209 88.1044 67.6724 87.9411 67.5763C87.747 67.4621 87.7551 67.3031 87.8448 67.1301C88.4306 66.0007 88.7655 64.7782 89.151 63.5745C89.1773 63.4924 89.2211 63.4161 89.2538 63.3359C89.6425 62.3811 90.7741 61.8648 91.5842 63.0313C91.6967 63.0843 91.7865 63.0125 91.8726 62.9657C92.3871 62.686 92.8815 62.7539 93.3287 63.0911C93.7795 63.431 93.9602 63.937 93.8779 64.4743C93.7359 65.4018 93.3763 66.2742 93.0921 67.1648C93.0397 67.3289 92.9381 67.4412 92.7482 67.4026C92.5694 67.3662 92.392 67.2925 92.4343 67.0696C92.4899 66.7768 92.3511 66.6652 92.103 66.5901C91.2783 66.3406 90.4534 66.0906 89.6359 65.8186C89.2995 65.7067 89.1731 65.8615 89.0545 66.1375C88.9302 66.4264 88.9448 66.6177 89.2611 66.7607C89.9053 67.0521 90.5431 67.3587 91.1763 67.674C92.1394 68.1535 92.3997 69.0686 91.8915 70.1441C91.4165 71.1494 90.4927 71.5332 89.5491 71.1084C88.9356 70.8322 88.3262 70.547 87.7187 70.2577C87.4857 70.1467 87.2731 70.0517 87.0994 70.3473C86.9873 70.5378 86.8275 70.5242 86.6535 70.4286C86.4279 70.3048 86.4596 70.1311 86.5472 69.9407C86.7211 69.5631 86.8873 69.1817 87.0695 68.8083C87.1554 68.6323 87.2092 68.387 87.506 68.4876C87.7753 68.5789 87.8377 68.7633 87.7463 69.0556ZM93.0171 65.1995C93.2394 64.3618 93.1191 63.929 92.6261 63.7935C92.145 63.6612 91.7807 63.9927 91.5214 64.7696C91.4049 65.1187 91.3622 65.3759 91.8154 65.5326C92.7488 65.8553 92.7414 65.8768 93.0171 65.1995ZM90.9698 64.1116C90.9982 63.7132 90.836 63.3937 90.4489 63.3274C90.0225 63.2544 89.8716 63.6146 89.7534 63.9542C89.7249 64.036 89.7022 64.1201 89.6695 64.2002C89.527 64.5486 89.5075 64.8212 89.9643 64.9603C90.5857 65.1495 90.6726 65.1353 90.8645 64.5969C90.9106 64.4677 90.9325 64.3298 90.9698 64.1116Z" fill="white"/>
<path d="M45.5599 18.9883C46.4161 18.6251 46.6888 18.1498 46.5776 17.2614C46.4182 15.9873 46.1198 14.7399 45.8598 13.4851C45.7897 13.147 45.6708 12.8825 45.2407 12.9887C45.0394 13.0385 44.9151 12.942 44.8734 12.7301C44.8281 12.4993 44.954 12.4179 45.1457 12.3766C45.684 12.2607 46.2227 12.1465 46.7594 12.023C46.9461 11.98 47.0986 11.968 47.1701 12.1966C47.2358 12.4063 47.1521 12.5313 46.9649 12.6035C46.6104 12.7403 46.6059 13.0022 46.6658 13.3272C46.901 14.604 47.1705 15.8778 47.3284 17.165C47.5348 18.8475 46.8472 19.7663 45.1973 20.1718C44.8134 20.2662 44.4227 20.3433 44.0231 20.321C42.8653 20.2563 42.165 19.7108 41.894 18.5556C41.5897 17.2586 41.3459 15.9471 41.0871 14.6396C41.0088 14.2441 40.889 13.9329 40.3959 13.9993C40.2031 14.0252 40.1173 13.8936 40.0853 13.7236C40.0472 13.5211 40.1709 13.4428 40.3405 13.4061C41.165 13.2276 41.9898 13.0499 42.8142 12.8706C42.9858 12.8333 43.127 12.8544 43.1763 13.0531C43.2181 13.2214 43.1941 13.3875 43.0093 13.4347C42.4781 13.5702 42.5423 13.9555 42.6147 14.3432C42.8116 15.3983 43.0117 16.4528 43.2152 17.5066C43.4924 18.9419 44.1459 19.3641 45.5599 18.9883Z" fill="white"/>
<path d="M33.2546 19.1611C32.3593 18.3024 31.0785 18.5066 30.1922 19.6256C29.728 20.2115 29.5734 20.8904 29.7681 21.5865C30.115 22.8258 30.8773 23.7361 32.1307 24.1342C33.1219 24.4491 33.9542 24.1285 34.6621 23.396C34.9482 23.1001 34.9808 22.8406 34.7214 22.4912C34.2284 21.8269 34.2443 21.809 33.5112 22.1197C33.3327 22.1954 33.1859 22.2326 33.0666 22.0378C32.9381 21.8281 33.0729 21.7197 33.2234 21.617C33.8653 21.1792 34.5074 20.7418 35.1495 20.3043C35.2522 20.2344 35.3587 20.1674 35.4781 20.2635C35.5623 20.3313 35.638 20.4388 35.5913 20.534C35.3364 21.0533 35.7472 21.346 35.9859 21.6726C36.5422 22.4342 36.628 22.1876 35.9773 23.0422C35.2151 24.0432 34.2595 24.7996 33.0575 25.185C30.4657 26.0159 27.8879 23.662 28.4513 20.9846C28.5985 20.2847 28.9939 19.7057 29.5067 19.2293C30.3526 18.4433 31.3206 17.8603 32.442 17.5439C32.776 17.4496 32.9541 17.5238 33.0866 17.8432C33.1987 18.1134 33.3556 18.3668 33.5104 18.6166C33.6944 18.9135 33.6546 19.1026 33.2546 19.1611Z" fill="white"/>
<path d="M72.3197 20.0299C72.7057 20.2673 73.0574 20.5615 73.3632 19.9734C73.4526 19.8015 73.625 19.8411 73.7695 19.9379C73.9082 20.0308 73.9312 20.1531 73.8498 20.2969C73.5512 20.8239 73.2525 21.3509 72.9533 21.8775C72.8656 22.0319 72.752 22.1148 72.5732 22.0115C72.4148 21.92 72.3732 21.7931 72.4271 21.616C72.489 21.4127 72.7064 21.1878 72.4873 20.9948C72.1639 20.71 71.7896 20.4844 71.3814 20.3371C71.2109 20.2756 71.1374 20.4485 71.075 20.56C70.7711 21.1037 70.4809 21.6552 70.1841 22.203C70.0582 22.4355 70.1262 22.5885 70.354 22.7084C70.7507 22.9172 71.1461 23.1302 71.5298 23.362C71.858 23.5602 72.1087 23.5024 72.3302 23.1999C72.4112 23.0892 72.513 22.9917 72.6158 22.9002C72.7459 22.7844 72.8715 22.8425 72.9865 22.9364C73.1009 23.0298 73.1047 23.1404 73.0252 23.257C72.8984 23.4428 72.7668 23.6254 72.6409 23.8118C72.0889 24.6293 72.091 24.6268 71.2561 24.1373C70.2586 23.5525 69.2567 22.9755 68.2602 22.3892C68.1072 22.2991 67.8671 22.2506 67.9171 21.9983C67.9583 21.7904 68.1562 21.7729 68.3297 21.7551C68.5677 21.7307 68.68 21.5537 68.7918 21.3773C69.6541 20.0165 70.4202 18.6 71.1894 17.1853C71.3397 16.9088 71.3594 16.6634 71.0827 16.4508C70.9164 16.323 70.8245 16.1693 70.9683 15.9619C71.1328 15.7247 71.2939 15.8698 71.4564 15.9629C72.6695 16.6571 73.8855 17.3462 75.0944 18.0478C75.6596 18.3759 75.66 18.4218 75.2895 18.9395C75.1486 19.1364 75.0164 19.3398 74.8751 19.5364C74.7747 19.6763 74.6527 19.7523 74.4801 19.6429C74.3405 19.5544 74.2898 19.4329 74.3758 19.2913C74.6827 18.7862 74.3718 18.5464 73.9937 18.2983C72.8093 17.5214 72.8132 17.5153 72.0951 18.7166C72.0596 18.776 72.0271 18.8373 71.9926 18.8973C71.5885 19.6005 71.5885 19.6004 72.3197 20.0299Z" fill="white"/>
<path d="M14.5636 42.3162C14.7471 42.392 14.8333 42.4907 14.7817 42.6548C14.7318 42.8139 14.5958 42.868 14.4519 42.8387C13.8027 42.7062 13.7234 43.188 13.602 43.6241C13.2511 44.8856 13.252 44.8859 14.4632 45.1986C15.6074 45.494 15.8332 45.3183 15.8956 44.1117C15.9094 43.8461 15.7638 43.7423 15.5571 43.6597C15.3816 43.5896 15.1767 43.5312 15.2578 43.264C15.3402 42.9928 15.5529 43.0736 15.7302 43.1066C16.2548 43.2042 16.7775 43.3133 17.3001 43.4216C17.465 43.4558 17.5993 43.5298 17.5623 43.7347C17.5346 43.8886 17.4364 44.0099 17.2803 43.9791C16.6328 43.8517 16.5336 44.2914 16.4521 44.7604C16.4082 45.0129 16.3615 45.2648 16.3114 45.5424C17.0568 45.7882 17.7912 45.8753 18.5181 45.9955C18.7583 46.0352 18.8616 45.8912 18.9063 45.6784C18.9741 45.3564 19.0252 45.0292 19.1182 44.7147C19.2925 44.1253 19.259 43.6597 18.5475 43.4877C18.3568 43.4417 18.2659 43.2848 18.3416 43.0821C18.4283 42.8499 18.6022 42.91 18.7725 42.9679C18.9194 43.0178 19.0672 43.0648 19.2158 43.1092C20.2106 43.4064 20.2071 43.4052 19.9727 44.4101C19.7094 45.5393 19.4535 46.6703 19.1942 47.8004C19.1566 47.9642 19.1701 48.1769 18.9487 48.2071C18.7593 48.2329 18.6818 48.0654 18.6347 47.9169C18.5573 47.6732 18.3512 47.6296 18.1531 47.5791C16.5503 47.1699 14.93 46.8438 13.3041 46.5433C12.9791 46.4832 12.8175 46.6171 12.7165 46.8981C12.6459 47.0946 12.5408 47.2467 12.2962 47.1467C12.0744 47.0561 12.1262 46.8836 12.1657 46.7081C12.4812 45.3059 12.7872 43.9016 13.1096 42.5011C13.2475 41.9017 13.2841 41.8946 13.8848 42.0964C14.0971 42.1677 14.3119 42.2317 14.5636 42.3162Z" fill="white"/>
<path d="M66.7188 18.3854C66.0924 19.2804 65.4854 20.1432 64.8825 21.0089C64.7564 21.19 64.6808 21.4316 64.3749 21.3177C64.1162 21.2214 63.8629 21.1652 63.8227 20.7976C63.712 19.7828 63.5608 18.7725 63.435 17.7592C63.2836 16.5391 63.1433 15.3175 62.995 14.097C62.9593 13.8037 62.8227 13.5817 62.545 13.4466C62.3536 13.3535 62.2608 13.1922 62.3668 12.9748C62.4759 12.7509 62.6494 12.838 62.8122 12.8914C63.5655 13.1383 64.3201 13.3811 65.0704 13.6369C65.2648 13.7032 65.5631 13.7011 65.4984 14.0385C65.4368 14.3593 65.1899 14.2991 64.9639 14.2657C64.9151 14.2584 64.8635 14.2701 64.7554 14.2765C64.5908 15.0834 64.7936 15.8809 64.858 16.6761C64.9234 17.4847 65.0523 18.2881 65.1535 19.094C65.3371 19.1212 65.3629 18.9667 65.4216 18.8822C66.142 17.8451 66.8522 16.8009 67.5702 15.7621C67.783 15.4542 67.8443 15.1965 67.407 15.0447C67.1728 14.9635 67.0657 14.8078 67.1648 14.5636C67.2748 14.2926 67.4732 14.4218 67.6451 14.4782C68.1525 14.6447 68.658 14.8168 69.1641 14.987C69.3307 15.043 69.5001 15.0945 69.481 15.328C69.4609 15.5735 69.3098 15.6555 69.0918 15.6364C68.7131 15.6032 68.5388 15.8856 68.3571 16.1294C67.8093 16.8645 67.2776 17.6117 66.7188 18.3854Z" fill="white"/>
<path d="M13.9052 52.4593C14.2302 52.199 14.2743 51.8422 14.37 51.5123C14.4327 51.2963 14.4743 51.0742 14.5276 50.8554C14.825 49.6344 15.2666 49.1606 16.1843 49.0765C17.1905 48.9843 18.251 49.5981 18.6364 50.565C19.1083 51.7487 18.9667 52.91 18.3817 54.0262C18.3167 54.1501 18.2357 54.2957 18.0806 54.2765C17.5862 54.2155 17.0936 54.1379 16.6029 54.0515C16.4616 54.0266 16.4318 53.8936 16.4489 53.7622C16.4754 53.5584 16.6308 53.5425 16.7915 53.5215C17.7695 53.394 18.2521 52.7787 18.1873 51.7488C18.1448 51.0717 17.731 50.606 17.119 50.546C16.4724 50.4827 16.1627 50.7189 15.9537 51.4551C15.8496 51.8215 15.7827 52.1989 15.6697 52.5621C15.3366 53.6331 14.7999 54.0221 13.7389 53.9865C12.7559 53.9535 11.9018 53.2922 11.6893 52.3731C11.476 51.4501 11.5798 50.5475 11.9127 49.6661C12.0349 49.3423 12.2231 49.1968 12.5887 49.3027C12.885 49.3885 13.1993 49.4103 13.5049 49.4646C13.6855 49.4966 13.7755 49.6067 13.7549 49.7945C13.7362 49.9663 13.6211 50.0351 13.4668 50.0249C13.0635 49.9981 12.7086 50.061 12.5059 50.4709C12.2639 50.9601 12.2044 51.4685 12.3916 51.9826C12.5962 52.5443 13.1747 52.7286 13.9052 52.4593Z" fill="white"/>
<path d="M92.3572 45.1293C91.0225 46.0889 89.7195 47.029 88.4139 47.9654C88.1431 48.1595 87.8688 48.3381 87.9042 48.7399C87.921 48.93 87.7846 49.0245 87.6178 49.0483C87.407 49.0782 87.3676 48.9123 87.3305 48.7556C87.1552 48.0138 86.9806 47.2717 86.804 46.5301C86.7602 46.3464 86.6619 46.1434 86.9305 46.055C87.1768 45.9739 87.2654 46.1452 87.3368 46.339C87.3657 46.4173 87.4197 46.4863 87.4755 46.5823C87.9212 46.4817 88.2318 46.1736 88.5777 45.9322C88.6916 45.8528 88.6796 45.7201 88.6515 45.5976C88.5274 45.0571 88.4337 44.5069 88.2684 43.9795C88.0905 43.4122 87.5695 43.6127 87.1689 43.5676C86.79 43.525 86.7535 43.7727 86.7707 44.0655C86.7799 44.2225 86.7013 44.3342 86.5424 44.3645C86.3345 44.4041 86.2692 44.2516 86.2292 44.0965C86.0954 43.5765 85.9715 43.054 85.8406 42.5332C85.7971 42.3602 85.8151 42.2203 86.0092 42.1621C86.1455 42.1213 86.3022 42.0843 86.3651 42.2567C86.5302 42.7091 86.9356 42.7209 87.3013 42.775C89.0559 43.035 90.8128 43.2792 92.5684 43.5322C92.8729 43.5761 93.2015 43.5837 93.2816 43.9959C93.3323 44.2571 93.3122 44.469 93.0625 44.6264C92.8292 44.7736 92.6121 44.9468 92.3572 45.1293ZM89.8694 45.0555C90.2752 44.7637 90.6811 44.4718 91.1925 44.104C90.378 43.9551 89.7196 43.8376 89.0399 43.8113C89.0772 44.4701 89.1892 44.9073 89.4086 45.2947C89.5815 45.3093 89.684 45.1768 89.8694 45.0555Z" fill="white"/>
<path d="M84.2493 27.2825C83.8023 27.0292 83.3912 27.0133 83.0082 27.3175C82.6963 27.5652 82.5667 27.8802 82.7176 28.2824C82.8715 28.6926 83.12 29.048 83.3422 29.4185C83.7355 30.074 83.99 30.7498 83.5041 31.4606C82.9985 32.2004 82.2798 32.5771 81.3826 32.5174C80.1344 32.4344 78.6305 30.9383 78.4937 29.6778C78.4864 29.611 78.467 29.5066 78.5003 29.4804C78.9195 29.1515 79.341 28.8247 79.7772 28.5194C79.8926 28.4387 80.0001 28.5585 80.0724 28.6618C80.1922 28.8331 80.0793 28.9473 79.977 29.0709C79.3615 29.8147 79.5307 30.8094 80.3621 31.3519C80.8314 31.6582 81.3838 31.6178 81.7944 31.2472C82.1733 30.9053 82.2229 30.5381 81.9383 29.9764C81.782 29.6679 81.5876 29.3792 81.423 29.0747C80.9136 28.1321 80.9548 27.5243 81.5653 26.835C82.1519 26.1727 83.1315 25.8996 83.9259 26.2445C84.9527 26.6903 85.5488 27.551 85.9654 28.557C86.0142 28.6749 86.0373 28.8203 85.9348 28.8985C85.5652 29.1802 85.1852 29.4489 84.7988 29.707C84.6995 29.7734 84.6056 29.6831 84.5396 29.5962C84.4455 29.4723 84.4423 29.3633 84.5367 29.2215C85.0973 28.3801 85.0436 28.0078 84.2493 27.2825Z" fill="white"/>
<path d="M90.8117 49.9311C92.1621 48.8459 93.8563 49.4198 94.2702 51.0613C94.4657 51.8369 94.4459 52.6028 94.2334 53.3725C94.1502 53.6742 93.9899 53.8053 93.6768 53.7784C93.4026 53.755 93.1257 53.7646 92.8501 53.7561C92.6592 53.7503 92.51 53.6768 92.4802 53.4675C92.4461 53.2276 92.6242 53.1885 92.7975 53.1434C93.7064 52.9071 94.0673 51.8638 93.5022 51.0872C93.2715 50.7702 92.9449 50.6145 92.555 50.6771C92.1646 50.7398 91.8893 50.9657 91.8166 51.3752C91.7441 51.7838 91.6828 52.1949 91.633 52.6069C91.4336 54.2574 89.9085 54.9653 88.5114 54.0541C88.0425 53.7483 87.7381 53.3156 87.5599 52.7939C87.2399 51.857 87.2755 50.9191 87.5974 49.9895C87.6718 49.7748 87.7605 49.5497 88.0522 49.5766C88.4456 49.613 88.835 49.6763 89.2345 49.6211C89.4115 49.5966 89.5224 49.7269 89.5306 49.9099C89.5395 50.1106 89.3942 50.1914 89.2329 50.2011C88.8602 50.2234 88.5111 50.2609 88.3252 50.6603C88.0937 51.1578 87.9438 51.6567 88.1152 52.2134C88.2898 52.7802 88.7056 53.1172 89.2437 53.0897C89.8298 53.0598 90.1385 52.7494 90.2293 52.0915C90.2743 51.7655 90.3054 51.4375 90.3538 51.1121C90.4154 50.6979 90.5094 50.2933 90.8117 49.9311Z" fill="white"/>
<path d="M88.6873 34.835C89.1403 34.6753 89.558 34.2356 89.9462 34.3789C90.3474 34.527 90.3302 35.1438 90.5152 35.5464C91.0574 36.7265 91.561 37.9247 92.1149 39.099C92.3218 39.5375 92.2273 39.7291 91.7746 39.8245C91.5064 39.8811 91.2479 39.9868 90.9877 40.0782C90.7999 40.1442 90.6431 40.13 90.5592 39.9268C90.4764 39.7264 90.6257 39.6561 90.7643 39.5725C90.9586 39.4553 91.2917 39.4179 91.2156 39.0958C91.1253 38.7135 91.023 38.3151 90.743 38.0166C90.6336 37.8999 90.4763 38.0076 90.3542 38.0562C88.9605 38.6108 87.5684 39.1698 86.1776 39.7319C85.8803 39.8521 85.6621 40.0179 85.8284 40.4004C85.9101 40.5883 85.8347 40.7393 85.6336 40.8097C85.3924 40.8941 85.3396 40.7083 85.2702 40.5498C84.9647 39.8517 84.6588 39.1538 84.3562 38.4544C84.2887 38.2985 84.185 38.1319 84.4013 38.0016C84.6295 37.864 84.7607 37.9965 84.8533 38.1819C85.0119 38.4994 85.2427 38.5191 85.5411 38.3988C86.9644 37.825 88.3887 37.2535 89.8176 36.6938C90.1017 36.5825 90.1421 36.4255 90.0129 36.1767C89.9331 36.0231 89.8487 35.8702 89.7874 35.7089C89.6307 35.296 89.3811 35.1269 88.9484 35.3321C88.809 35.3983 88.6439 35.4472 88.5346 35.2695C88.4252 35.0916 88.4403 34.9401 88.6873 34.835Z" fill="white"/>
<path d="M14.4702 38.4243C14.5636 38.157 14.6463 37.9292 14.7272 37.7007C14.7839 37.5402 14.8612 37.4143 15.0638 37.4759C15.2363 37.5283 15.3419 37.6356 15.2803 37.8222C15.0937 38.388 15.4398 38.5335 15.879 38.6806C17.4474 39.2062 19.0056 39.7622 20.5692 40.3024C21.7076 40.6956 22.343 41.5055 22.5405 42.6848C22.5434 42.7018 22.5487 42.7185 22.5511 42.7357C22.601 43.0933 22.6006 43.5003 22.2825 43.6784C21.9379 43.8714 21.6395 43.5393 21.3044 43.416C22.0055 42.4755 22.0104 42.4406 20.9051 42.054C19.0187 41.3942 17.1189 40.7736 15.2288 40.1245C14.8113 39.9811 14.4921 39.9873 14.324 40.4724C14.2505 40.6844 14.0977 40.7772 13.8769 40.6625C13.6557 40.5476 13.7456 40.3803 13.8072 40.2159C14.0257 39.6323 14.2417 39.0477 14.4702 38.4243Z" fill="white"/>
<path d="M59.5284 19.9065C58.8732 19.802 58.2618 19.7054 57.6502 19.6097C57.4333 19.5758 57.1626 19.5961 57.1614 19.2763C57.1602 18.9686 57.386 18.9313 57.6333 18.9466C58.0642 18.9731 58.0849 18.6281 58.1205 18.349C58.2474 17.3541 58.3511 16.3562 58.4605 15.3591C58.5302 14.7233 58.5905 14.0863 58.663 13.4508C58.7033 13.0971 58.621 12.8381 58.2304 12.7557C57.8694 12.6797 57.8666 12.4518 58.0209 12.125C58.9948 12.2793 59.9753 12.4318 60.9543 12.5927C61.1095 12.6182 61.1869 12.7328 61.1673 12.8972C61.1456 13.0796 61.0461 13.1978 60.8593 13.1658C60.3908 13.0856 60.264 13.3419 60.2199 13.7467C60.0418 15.3801 59.8475 17.0118 59.6628 18.6445C59.6256 18.9737 59.6464 19.2778 60.0558 19.3715C60.2769 19.4222 60.4488 19.5278 60.3794 19.8016C60.2986 20.1198 60.0727 19.9921 59.8785 19.9599C59.7767 19.943 59.6743 19.9297 59.5284 19.9065Z" fill="white"/>
<path d="M60.3468 89.5936C60.0276 89.5676 59.978 89.3618 59.9817 89.1444C59.9858 88.9024 60.207 88.9073 60.3637 88.8754C60.7852 88.7896 61.2109 88.7239 61.6351 88.6513C61.8163 88.6203 61.9849 88.6199 62.0488 88.8449C62.105 89.0426 62.1296 89.2401 61.8779 89.3097C61.5482 89.401 61.5791 89.6336 61.6213 89.8851C61.7617 90.7216 61.9028 91.5581 62.0355 92.3958C62.0727 92.6311 62.1613 92.7868 62.4255 92.7843C62.6707 92.782 62.7489 92.9411 62.7629 93.1563C62.7784 93.3948 62.618 93.4381 62.4343 93.4667C61.975 93.5381 61.5167 93.616 61.0575 93.6883C60.8937 93.7142 60.7422 93.7032 60.688 93.5031C60.6392 93.3231 60.6519 93.1827 60.8304 93.0545C61.1912 92.7952 61.2306 92.3709 60.9917 91.8247C60.8163 91.4236 60.4996 91.6289 60.2301 91.637C60.1454 91.6395 60.062 91.6736 59.9771 91.6872C59.0432 91.8372 59.0519 91.8352 59.2265 92.7529C59.2769 93.0182 59.3434 93.2165 59.6527 93.2417C59.8897 93.2611 59.9638 93.4256 59.9548 93.645C59.9454 93.8754 59.7736 93.9215 59.6012 93.9518C59.1602 94.0294 58.7172 94.0959 58.2755 94.1701C58.0721 94.2043 57.9427 94.1302 57.8867 93.9276C57.835 93.7402 57.8409 93.5773 58.064 93.514C58.3515 93.4324 58.3627 93.2322 58.3207 92.9823C58.1826 92.1627 58.0578 91.3408 57.9245 90.5204C57.8817 90.2567 57.8399 89.9936 57.4642 90.0329C57.2538 90.055 57.2187 89.8907 57.1991 89.7247C57.1778 89.5441 57.233 89.4109 57.4218 89.3762C57.9303 89.2825 58.4395 89.1923 58.9497 89.1089C59.1389 89.0779 59.2274 89.1837 59.2656 89.367C59.301 89.537 59.3068 89.6715 59.1161 89.7501C58.4312 90.0324 58.9029 90.5265 58.9566 90.8987C59.0127 91.2884 59.3656 91.0614 59.5966 91.0389C59.8018 91.0189 60.0079 90.9864 60.2074 90.9351C60.4226 90.8799 60.7921 90.9585 60.7711 90.6302C60.7482 90.2713 60.8717 89.8028 60.3468 89.5936Z" fill="white"/>
<path d="M94.5005 59.0982C93.9949 60.5793 92.778 61.1366 91.5883 60.4696C90.7469 59.9978 90.357 58.9393 90.6803 58.0044C91.013 57.0423 91.8957 56.484 92.8434 56.6362C93.7952 56.789 94.5167 57.643 94.5335 58.6418C94.5358 58.7795 94.519 58.9176 94.5005 59.0982Z" fill="white"/>
<path d="M15.9616 57.2973C16.745 58.8622 15.8575 60.4774 14.2635 60.4579C13.3589 60.4469 12.6019 59.8194 12.3853 58.9011C12.1638 57.9623 12.5968 56.9716 13.4052 56.5676C14.2359 56.1525 15.175 56.343 15.7901 57.0534C15.8463 57.1184 15.8915 57.193 15.9616 57.2973Z" fill="white"/>
<path d="M42.4343 88.6554C41.5623 88.6823 41.5273 89.4127 41.3201 89.998C41.0661 90.7158 40.8161 91.4351 40.5571 92.1511C40.4961 92.3197 40.4916 92.5665 40.2393 92.5649C39.9751 92.5633 39.8732 92.3606 39.7963 92.1297C39.4464 91.0789 39.0869 90.0313 38.7286 88.9833C38.696 88.888 38.6473 88.7982 38.5739 88.6336C38.2272 89.3056 38.0468 89.9658 37.8285 90.6099C37.7535 90.8312 37.8833 90.9668 38.0666 91.0686C38.2867 91.1907 38.2561 91.3646 38.1638 91.5579C38.06 91.7752 37.8932 91.7356 37.7244 91.6788C37.3491 91.5526 36.9748 91.423 36.6023 91.2885C36.432 91.227 36.2797 91.1343 36.3264 90.9139C36.3681 90.7172 36.4433 90.5373 36.7003 90.5869C36.9998 90.6448 37.0898 90.4436 37.1682 90.219C37.436 89.451 37.7043 88.6832 37.9751 87.9162C38.0668 87.6564 38.127 87.42 37.8122 87.251C37.6097 87.1423 37.6789 86.9613 37.7538 86.7958C37.8478 86.588 38.0043 86.6067 38.1881 86.6531C38.7397 86.7925 39.11 87.0638 39.2772 87.6722C39.5373 88.6183 39.8986 89.5362 40.2171 90.466C40.2634 90.4709 40.3098 90.4759 40.3562 90.4808C40.5752 89.8606 40.8004 89.2425 41.0094 88.619C41.0686 88.4423 40.9054 88.3796 40.7829 88.324C40.5287 88.2087 40.5333 88.0309 40.6319 87.811C40.7453 87.5582 40.9353 87.6167 41.1095 87.6984C41.5822 87.9202 42.1555 87.9212 42.5278 88.4166C42.4933 88.5395 42.4638 88.5974 42.4343 88.6554Z" fill="white"/>
<path d="M88.3369 31.7363C88.5154 31.9954 88.6746 32.2222 88.8307 32.4512C88.9352 32.6046 89.0041 32.7595 88.8157 32.9052C88.6406 33.0406 88.4845 32.9988 88.3743 32.8289C88.152 32.4865 87.8964 32.5638 87.6257 32.7474C86.3674 33.601 85.1087 34.454 83.8527 35.311C83.5982 35.4847 83.4665 35.7068 83.6407 36.0189C83.7471 36.2093 83.7528 36.3874 83.5357 36.5055C83.2795 36.6447 83.2057 36.4218 83.1057 36.27C82.6864 35.6337 82.2696 34.9959 81.8551 34.3566C81.7525 34.1984 81.6158 34.0343 81.8294 33.8568C82.035 33.6859 82.1856 33.7987 82.3034 33.9681C82.5187 34.2776 82.7414 34.2091 83.004 34.0288C84.2717 33.1584 85.5433 32.2939 86.8183 31.4345C87.0865 31.2538 87.2189 31.0628 87.012 30.7521C86.8925 30.5725 86.8703 30.4002 87.0968 30.2703C87.3427 30.1294 87.4424 30.3111 87.5446 30.4711C87.8056 30.8799 88.0595 31.2934 88.3369 31.7363Z" fill="white"/>
<path d="M78.0238 82.3428C78.3678 82.8916 78.27 83.4012 77.9576 83.9745C78.6359 84.1419 79.0983 84.8746 79.9059 84.4635C80.0604 84.3848 80.1464 84.554 80.2247 84.6649C80.3129 84.7897 80.3219 84.8984 80.2054 85.0336C79.7737 85.5345 79.3551 85.6363 78.7636 85.3644C78.3091 85.1555 77.8516 84.9534 77.3965 84.7459C77.229 84.6695 77.0688 84.6287 76.9275 84.7938C76.7849 84.9605 76.9179 85.085 76.9982 85.2098C77.12 85.3988 77.256 85.5786 77.3824 85.7647C77.5037 85.9432 77.6456 86.04 77.8572 85.9059C78.0708 85.7705 78.2089 85.8731 78.3284 86.0522C78.483 86.284 78.3181 86.4063 78.1657 86.521C77.8069 86.791 77.4387 87.0481 77.0797 87.3178C76.9205 87.4374 76.7759 87.4815 76.631 87.3064C76.5171 87.1689 76.3896 87.0118 76.5685 86.8561C76.8504 86.6108 76.7099 86.4101 76.5487 86.1868C76.0627 85.5132 75.5802 84.8369 75.1023 84.1575C74.9578 83.9522 74.8148 83.8149 74.5526 83.985C74.3578 84.1114 74.2367 83.9856 74.1303 83.8284C74.0085 83.6484 74.0414 83.504 74.2131 83.3847C74.879 82.9219 75.4837 82.3664 76.204 81.988C76.9435 81.5994 77.4635 81.7108 78.0238 82.3428ZM75.7178 83.1653C75.6798 83.641 76.0197 83.9455 76.3214 84.16C76.5713 84.3377 76.8231 83.9635 77.0537 83.8083C77.3839 83.5861 77.484 83.2782 77.2417 82.9191C77.0121 82.5787 76.7112 82.4922 76.3544 82.7071C76.1493 82.8306 75.9598 82.9804 75.7178 83.1653Z" fill="white"/>
<path d="M66.9115 91.3423C66.58 92.3538 65.8729 92.8593 64.8975 92.9171C63.9589 92.9727 63.3119 92.4485 62.8677 91.6443C62.5098 90.9961 62.3884 90.3016 62.5375 89.5839C62.7193 88.7086 63.263 88.1223 64.1346 87.9287C65.0106 87.7341 65.7861 87.9766 66.3492 88.7049C66.9417 89.4711 67.152 90.3411 66.9115 91.3423ZM66.0605 90.4438C65.9291 89.8045 65.7337 89.1969 65.1651 88.8031C64.5051 88.346 63.6941 88.6359 63.4914 89.4141C63.2539 90.3262 63.5084 91.1441 64.1173 91.8199C64.7605 92.5337 65.7314 92.2707 66.0068 91.3442C66.0857 91.0788 66.1532 90.8076 66.0605 90.4438Z" fill="white"/>
<path d="M74.5403 87.5634C73.8986 86.9861 73.5149 87.647 73.0609 87.8443C72.5781 88.054 72.9345 88.435 72.9319 88.7163C73.0596 88.8376 73.1545 88.7743 73.2481 88.7379C73.463 88.6543 73.5612 88.7789 73.6501 88.9484C73.7544 89.1472 73.6879 89.2782 73.5105 89.3764C73.1485 89.5767 72.7859 89.7761 72.4227 89.9742C72.291 90.046 72.1555 90.0738 72.0576 89.9263C71.9626 89.783 71.8409 89.6176 72.0111 89.4617C72.2885 89.2076 72.2286 88.9046 72.1797 88.5937C72.0075 87.5004 71.8535 86.4038 71.6584 85.3147C71.5944 84.9577 71.7559 84.7378 71.9822 84.5544C72.2409 84.3447 72.385 84.6415 72.5397 84.7641C73.4458 85.4827 74.3392 86.2175 75.2377 86.9458C75.4644 87.1296 75.6727 87.3395 76.0182 87.1993C76.231 87.1129 76.3217 87.3068 76.3974 87.4621C76.4832 87.6379 76.3994 87.7587 76.2448 87.8456C75.8389 88.0738 75.4341 88.3036 75.0278 88.531C74.8478 88.6317 74.6714 88.6803 74.537 88.4596C74.4291 88.2823 74.3683 88.1163 74.6021 87.9776C74.8483 87.8315 74.7172 87.7042 74.5403 87.5634ZM72.5943 86.5819C72.6324 86.7585 72.6121 86.959 72.8135 87.1015C73.0154 87.0016 73.2418 86.936 73.4198 86.7332C73.2113 86.3749 72.8581 86.2143 72.5323 85.9131C72.5565 86.1699 72.5724 86.3375 72.5943 86.5819Z" fill="white"/>
<path d="M21.9908 80.2842C22.3242 80.4709 22.5939 80.4096 22.8185 80.1691C23.0273 79.9455 22.9606 79.6887 22.861 79.4386C22.6754 78.973 22.4601 78.517 22.3094 78.0402C22.095 77.362 22.3022 76.7964 22.8364 76.4462C23.3561 76.1056 23.953 76.1899 24.5022 76.6376C24.9342 76.9898 25.074 77.5867 25.5729 77.8806C25.6604 77.9322 25.6156 78.0766 25.5676 78.1712C25.4113 78.4796 25.2521 78.7866 25.0901 79.0921C24.9957 79.2701 24.8479 79.3315 24.6565 79.2637C24.4507 79.1908 24.442 79.0441 24.4717 78.8464C24.5464 78.3489 24.6309 77.8348 24.2652 77.4062C24.052 77.1563 23.8109 76.8928 23.4292 77.0996C23.0576 77.3008 23.0837 77.6312 23.2114 77.9585C23.3808 78.393 23.6031 78.8078 23.7552 79.2477C24.0193 80.0116 23.8537 80.5792 23.3054 80.9508C22.7296 81.3409 22.0458 81.2693 21.4572 80.7546C21.2209 80.5479 21.0299 80.3055 20.8872 80.0228C20.8256 79.9009 20.7506 79.7832 20.6657 79.6764C20.5303 79.5059 20.0877 79.5692 20.2152 79.2269C20.382 78.7788 20.5745 78.3243 20.8947 77.9544C20.9858 77.8492 21.1201 77.9357 21.2268 77.9943C21.4157 78.0982 21.3996 78.2566 21.3712 78.4423C21.2636 79.1449 21.3376 79.7957 21.9908 80.2842Z" fill="white"/>
<path d="M52.2221 91.1269C51.8799 90.6932 51.6132 90.2349 51.0576 90.0946C50.659 89.9939 50.2676 89.9817 50.0869 90.4208C49.9004 90.8739 50.2477 91.0905 50.5888 91.2443C50.9498 91.4072 51.3367 91.5113 51.6989 91.6717C52.5379 92.0431 52.8749 92.6591 52.6636 93.3904C52.4532 94.1186 51.7014 94.545 50.8567 94.4394C50.3789 94.3797 49.9138 94.0333 49.3985 94.4165C49.1075 93.9479 49.0301 93.4473 48.8776 92.9767C48.8329 92.839 48.8922 92.7427 49.0178 92.6816C49.1662 92.6093 49.3163 92.5671 49.4427 92.7131C49.5444 92.8305 49.6288 92.9627 49.726 93.0843C50.0835 93.5315 50.5322 93.7735 51.119 93.7341C51.4639 93.7109 51.7307 93.5919 51.8083 93.2278C51.8829 92.8782 51.6816 92.6692 51.3923 92.5347C51.2052 92.4477 51.009 92.3795 50.8146 92.3091C50.4077 92.1618 50.004 92.0059 49.6648 91.7272C49.2589 91.3936 49.0568 90.9633 49.1777 90.438C49.2949 89.9284 49.6141 89.583 50.1266 89.4343C50.5015 89.3254 50.8752 89.3331 51.2506 89.4262C51.4008 89.4635 51.5499 89.5188 51.7021 89.53C51.9065 89.545 52.17 89.3235 52.2978 89.6234C52.4727 90.0337 52.6663 90.4542 52.6617 90.9086C52.66 91.0826 52.4495 91.161 52.2221 91.1269Z" fill="white"/>
<path d="M79.8838 81.2288C80.3335 81.0376 80.7381 80.8406 81.1579 80.6851C81.7307 80.4729 82.2525 80.5862 82.6667 81.0474C83.0898 81.5185 83.1287 82.0915 82.8052 82.6883C82.6368 82.9991 82.4128 83.2716 82.1033 83.436C81.7153 83.6421 81.3618 83.8664 81.2183 84.362C80.7775 84.1467 80.3771 83.9543 79.9798 83.7555C79.8388 83.685 79.6905 83.6016 79.7597 83.4015C79.8278 83.2048 79.9533 83.0742 80.184 83.1024C80.525 83.1441 80.8604 83.2093 81.2091 83.1122C81.5761 83.01 81.8654 82.8176 82.0887 82.5127C82.2578 82.2817 82.3128 82.0509 82.1304 81.7963C81.9472 81.5408 81.7196 81.4257 81.416 81.5508C81.0972 81.6821 80.7844 81.8279 80.4677 81.9644C80.1009 82.1225 79.7286 82.2449 79.3185 82.2274C78.441 82.1902 77.8569 81.3173 78.1677 80.4928C78.3137 80.1055 78.5784 79.8138 78.9101 79.5803C79.0369 79.491 79.1662 79.3956 79.3088 79.3408C79.5579 79.2449 79.569 78.789 79.8698 78.8763C80.244 78.9848 80.5843 79.2138 80.9366 79.396C81.0913 79.476 81.165 79.5973 81.1047 79.7816C81.0359 79.9917 80.8973 80.0269 80.6993 79.9859C80.2554 79.8941 79.8084 79.8365 79.3929 80.0908C79.0744 80.2858 78.7461 80.5266 78.8919 80.9492C79.0549 81.4218 79.4541 81.3813 79.8838 81.2288Z" fill="white"/>
<path d="M42.4239 88.6892C42.4639 88.5976 42.4934 88.5396 42.5374 88.4525C42.729 88.2682 42.9285 88.2907 43.1377 88.3376C44.1626 88.5671 45.1853 88.8093 46.2159 89.0099C46.6103 89.0866 46.7796 89.288 46.8076 89.6646C46.8204 89.837 46.8394 90.0101 46.8737 90.1792C46.9232 90.4231 46.9246 90.6287 46.627 90.7091C46.3385 90.787 46.2679 90.5871 46.1984 90.3835C46.0705 90.0088 45.8912 89.6954 45.4681 89.5792C45.1961 89.5046 45.0331 89.5562 44.969 89.8432C44.769 90.7391 44.5723 91.6359 44.3647 92.53C44.3007 92.8058 44.4503 92.9122 44.6674 92.9791C44.8968 93.0498 44.9558 93.1985 44.8918 93.4202C44.8211 93.6649 44.6459 93.6835 44.4424 93.6374C43.9222 93.5194 43.4041 93.3911 42.8822 93.2808C42.6749 93.2369 42.5822 93.1403 42.6129 92.9239C42.6443 92.7023 42.7488 92.5432 42.9837 92.6016C43.356 92.6943 43.4175 92.4763 43.478 92.1922C43.6436 91.4137 43.8308 90.6399 44.0029 89.8628C44.1243 89.3146 43.948 89.13 43.3914 89.2009C43.0799 89.2407 42.8629 89.4388 42.6468 89.6387C42.5112 89.7641 42.3821 89.8621 42.1985 89.7111C42.0185 89.5632 41.9977 89.4086 42.1258 89.215C42.2305 89.0569 42.3182 88.8873 42.4239 88.6892Z" fill="white"/>
<path d="M53.3259 90.8915C53.8473 89.738 54.3844 89.4039 55.6026 89.447C55.723 89.4512 55.8462 89.4489 55.9628 89.4742C56.2105 89.528 56.516 89.229 56.689 89.491C56.9237 89.8465 57.0698 90.2634 57.2358 90.6616C57.3023 90.821 57.1719 90.9151 57.0501 90.9899C56.9093 91.0764 56.7851 91.041 56.6812 90.9243C56.4739 90.6914 56.2637 90.4625 55.9902 90.3046C55.2616 89.8841 54.5618 90.1277 54.2819 90.9198C54.0738 91.5088 54.0683 92.1153 54.2849 92.702C54.4703 93.2044 54.8206 93.545 55.3768 93.6145C55.9713 93.6887 56.416 93.4558 56.7206 92.9416C56.7471 92.897 56.7785 92.8545 56.7992 92.8073C56.9002 92.5775 57.0592 92.4885 57.2944 92.6068C57.5203 92.7205 57.4915 92.9042 57.4107 93.0955C57.0907 93.8526 56.5488 94.3526 55.7268 94.4667C54.9387 94.576 54.2497 94.3262 53.7505 93.6943C53.0961 92.8658 53.0502 91.9178 53.3259 90.8915Z" fill="white"/>
<path d="M84.3946 75.1306C83.3351 75.4792 83.078 76.2101 83.6737 77.1033C83.9481 77.5147 84.3228 77.8107 84.7725 78.0207C85.3132 78.2733 85.8161 78.2219 86.2696 77.8467C86.7531 77.4466 86.8309 76.9151 86.6671 76.3368C86.5954 76.0834 86.4517 75.8152 86.8301 75.703C87.1787 75.5996 87.2181 75.9198 87.3042 76.1238C87.9104 77.5601 86.8811 79.102 85.3255 79.1005C83.6572 79.0988 82.2563 77.3872 82.6788 75.8713C82.7949 75.4547 83.0385 75.128 83.3535 74.8471C83.4436 74.7668 83.5399 74.6938 83.6305 74.614C83.8022 74.4628 83.7564 74.0581 84.0698 74.11C84.4899 74.1797 84.8976 74.3379 85.3027 74.4807C85.4632 74.5372 85.4353 74.705 85.4102 74.8434C85.3845 74.9853 85.2846 75.0375 85.1511 75.05C84.9121 75.0725 84.6736 75.0998 84.3946 75.1306Z" fill="white"/>
<path d="M85.1183 72.4324C85.193 72.313 85.2469 72.2243 85.3005 72.1354C85.3865 71.993 85.4876 71.8638 85.6703 71.978C85.8273 72.076 86.0447 72.1863 85.9105 72.4175C85.7386 72.7136 85.8764 72.8535 86.1077 72.9965C86.8559 73.4588 87.6034 73.9226 88.3431 74.3986C88.5868 74.5554 88.7255 74.5082 88.889 74.2732C89.269 73.727 89.4618 73.1706 89.1461 72.5263C89.0483 72.3268 89.0069 72.1344 89.2524 71.9908C89.5175 71.8358 89.6299 72.0268 89.7478 72.1976C90.5225 73.3201 90.4623 72.9761 89.8326 74.0256C89.4589 74.6483 89.0662 75.2596 88.6774 75.8731C88.5781 76.0298 88.4902 76.2264 88.2384 76.1134C88.0114 76.0116 87.9311 75.8578 88.0327 75.6136C88.1149 75.416 88.0088 75.282 87.8486 75.1816C87.0887 74.7053 86.327 74.2319 85.5688 73.7529C85.3853 73.637 85.2289 73.6006 85.081 73.8077C84.9346 74.0127 84.7673 73.9609 84.5903 73.8354C84.3747 73.6825 84.437 73.5219 84.5499 73.3446C84.7356 73.0528 84.9152 72.7571 85.1183 72.4324Z" fill="white"/>
<path d="M68.0672 90.5499C67.7504 89.7777 67.4469 89.042 67.144 88.3061C67.0441 88.0633 66.9703 87.8066 66.602 87.9251C66.3859 87.9947 66.2972 87.8152 66.2446 87.6416C66.1883 87.4559 66.2912 87.3437 66.4487 87.2762C66.9078 87.0795 67.3685 86.8867 67.8289 86.6931C68.0184 86.6135 68.158 86.6564 68.2522 86.852C68.3399 87.0341 68.3473 87.2012 68.1462 87.2894C67.8192 87.433 67.8481 87.6321 67.9711 87.9145C68.3024 88.6755 68.6131 89.4459 68.9166 90.2187C69.0523 90.5643 69.2336 90.6457 69.5913 90.5035C70.1801 90.2693 70.5988 89.9188 70.6977 89.2586C70.7326 89.0257 70.8473 88.8739 71.1098 88.8954C71.3854 88.9179 71.3625 89.1141 71.3651 89.3124C71.3801 90.4614 71.385 90.4674 70.3347 90.9222C69.7028 91.1959 69.0624 91.4501 68.4233 91.7067C68.2418 91.7795 68.0433 91.9317 67.8888 91.6534C67.7692 91.4381 67.7793 91.2656 68.0123 91.131C68.2651 90.985 68.1586 90.781 68.0672 90.5499Z" fill="white"/>
<path d="M55.0967 61.2498C55.0956 62.9846 55.0826 64.6675 55.1019 66.3501C55.1067 66.7624 54.9575 66.9827 54.5903 67.139C53.6385 67.5441 52.7102 67.4886 51.7852 67.0665C51.4952 66.9342 51.3292 66.7422 51.3303 66.3894C51.3384 63.926 51.3315 61.4625 51.3307 58.9991C51.3307 58.8624 51.3198 58.72 51.4815 58.5449C52.5909 59.193 53.7603 59.2443 54.9947 58.5659C55.1833 59.492 55.0526 60.3504 55.0967 61.2498Z" fill="white"/>
<path d="M56.6737 48.7992C57.1745 48.2942 57.6498 47.8153 58.1266 47.338C58.4507 47.0136 59.0061 46.7325 58.1485 46.2238C59.1199 45.8291 59.9874 45.6595 60.9303 45.3857C60.8036 46.3656 60.47 47.2042 60.2373 48.0481C59.9357 48.127 59.8745 47.8126 59.5966 47.7905C59.1406 48.23 58.6383 48.6985 58.1531 49.1842C55.5485 51.7921 52.9163 54.3734 50.3667 57.0348C49.6552 57.7775 48.9224 57.621 48.0547 57.4817C50.9194 54.5965 53.7841 51.7113 56.6737 48.7992Z" fill="white"/>
<path d="M47.9321 46.1267C50.8274 46.1267 53.6717 46.1266 56.516 46.1265C56.6367 46.1265 56.7574 46.1252 56.878 46.1267C57.3274 46.1324 57.8622 46.4549 57.864 46.7204C57.8656 46.9678 57.1973 47.4392 56.834 47.4393C54.1793 47.4398 51.5245 47.4505 48.87 47.4268C48.3616 47.4222 48.1822 47.5903 48.2383 48.0832C48.2656 48.3229 48.2111 48.5738 48.2498 48.8103C48.4188 49.8425 47.6274 50.2404 47.0541 50.7954C46.7907 50.6105 46.8707 50.3824 46.8692 50.189C46.8604 49.0788 46.8644 47.9686 46.8646 46.8584C46.8647 46.1278 46.8651 46.1278 47.5708 46.1263C47.6743 46.1261 47.7777 46.1266 47.9321 46.1267Z" fill="white"/>
<path d="M58.3122 56.5562C58.3118 57.6517 58.3118 57.6502 57.2765 57.6481C55.3131 57.644 53.3497 57.6428 51.3864 57.6374C51.187 57.6369 50.9791 57.6725 50.7874 57.5714C51.094 56.8224 51.811 56.319 52.549 56.3206C53.8578 56.3233 55.167 56.3122 56.4754 56.3393C56.9353 56.3489 57.149 56.2212 57.1064 55.7268C56.999 54.483 57.1096 53.2287 57.0076 51.9902C56.9235 50.9688 57.5705 50.5227 58.3121 50.0039C58.3121 52.1711 58.3121 54.3382 58.3122 56.5562Z" fill="white"/>
<path d="M53.4522 50.4549C51.2952 52.615 49.1637 54.7488 46.9212 56.9938C46.9301 56.1942 46.5964 55.5065 47.1882 54.9233C49.2559 52.8856 51.2267 50.7513 53.3078 48.7263C53.764 48.2823 53.9322 48.631 54.2117 48.8689C54.5199 49.1312 54.6034 49.361 54.2485 49.6601C53.9722 49.893 53.7333 50.1708 53.4522 50.4549Z" fill="white"/>
<path d="M51.8767 73.9329C50.7132 74.0866 50.033 73.742 49.58 72.7298C49.0086 71.4529 49.0388 70.1661 49.6602 68.9111C50.0131 68.1985 50.6083 67.7955 51.4031 67.8141C52.1751 67.8322 52.7344 68.2486 53.0663 68.9512C53.6903 70.2723 53.6803 71.5985 53.0485 72.9112C52.8152 73.3958 52.4411 73.7496 51.8767 73.9329ZM51.6213 73.2856C51.9586 73.1627 52.148 72.8969 52.2494 72.5738C52.6009 71.4545 52.6128 70.3276 52.2443 69.2118C52.1145 68.8188 51.8655 68.4925 51.4015 68.4845C50.922 68.4762 50.6311 68.7851 50.4877 69.1987C50.089 70.3486 50.1104 71.513 50.5083 72.6564C50.6677 73.1145 51.0004 73.4089 51.6213 73.2856Z" fill="white"/>
<path d="M54.475 68.5758C55.5487 67.3974 57.0344 67.5947 57.694 69.0074C58.299 70.303 58.2798 71.6271 57.65 72.916C57.3233 73.5845 56.7843 73.9752 56.0126 73.9882C55.2243 74.0015 54.6417 73.6396 54.299 72.9526C53.5671 71.4853 53.5767 70.0253 54.475 68.5758ZM56.7564 72.7837C57.275 71.5406 57.2612 70.2925 56.7629 69.0515C56.6266 68.7121 56.3597 68.4796 55.9692 68.4849C55.5876 68.4901 55.3043 68.6999 55.1637 69.0423C54.6547 70.282 54.6176 71.544 55.1769 72.7669C55.5179 73.5124 56.2168 73.5207 56.7564 72.7837Z" fill="white"/>
<path d="M62.0264 71.4972C62.2022 71.5133 62.3399 71.5234 62.4775 71.522C62.7325 71.5194 62.8533 71.6346 62.8563 71.8982C62.8595 72.1747 62.7545 72.3438 62.4666 72.315C61.9957 72.268 61.8517 72.4845 61.9111 72.9269C61.9498 73.215 62.1319 73.2837 62.3721 73.3214C62.5603 73.3509 62.7687 73.3925 62.7328 73.6619C62.7009 73.9013 62.5038 73.8866 62.3337 73.8875C61.6791 73.891 61.0246 73.8892 60.37 73.8881C60.1733 73.8878 59.9653 73.8798 59.9593 73.6128C59.9542 73.3803 60.1474 73.3493 60.3202 73.3242C60.5969 73.2841 60.8852 73.2705 60.9339 72.8985C60.981 72.539 60.9313 72.287 60.4674 72.3154C59.9869 72.3449 59.503 72.3307 59.0211 72.3175C58.809 72.3117 58.5398 72.4156 58.4057 72.174C58.2521 71.8971 58.4585 71.6783 58.6109 71.4734C59.323 70.5166 60.0406 69.5639 60.7583 68.6113C60.9039 68.418 61.0545 68.2282 61.2101 68.0431C61.337 67.8921 61.4866 67.7666 61.7011 67.854C61.9003 67.9352 61.8938 68.1267 61.8946 68.2977C61.8987 69.199 61.8938 70.1003 61.8988 71.0016C61.8997 71.1656 61.8163 71.3517 62.0264 71.4972ZM60.7288 69.7553C60.3115 70.2798 59.8977 70.8067 59.5619 71.4314C59.8959 71.5576 60.205 71.5104 60.5083 71.5235C60.8104 71.5366 60.9538 71.4119 60.9454 71.0969C60.934 70.6639 60.9441 70.2303 60.9395 69.797C60.9382 69.6777 60.9092 69.5745 60.7288 69.7553Z" fill="white"/>
<path d="M46.0944 71.9068C46.5393 71.4241 47.0153 71.0164 47.2904 70.4386C47.5787 69.8333 47.5143 69.2339 47.1096 68.9186C46.6744 68.5793 45.9873 68.6644 45.5064 69.1244C45.3948 69.2311 45.3066 69.3623 45.1994 69.4741C45.076 69.6029 44.9526 69.5502 44.8329 69.458C44.7135 69.3659 44.6506 69.2672 44.7111 69.1029C45.1034 68.0376 46.5456 67.5006 47.5826 68.0386C48.2437 68.3816 48.5828 69.1471 48.4049 69.884C48.2489 70.53 47.8799 71.0493 47.4262 71.508C46.9782 71.9608 46.5048 72.3881 46.0425 72.8265C46.0652 72.8751 46.088 72.9238 46.1107 72.9724C46.6461 72.9724 47.1817 72.9828 47.7166 72.9666C47.8999 72.9611 48.0216 72.8125 48.0973 72.6489C48.2066 72.4125 48.3745 72.3648 48.6043 72.4594C48.9026 72.5823 48.7683 72.7842 48.706 72.9777C48.4123 73.8901 48.413 73.8898 47.4419 73.8895C46.6325 73.8893 45.8231 73.8931 45.0138 73.8887C44.8496 73.8878 44.6467 73.9321 44.5787 73.7082C44.5221 73.5213 44.6173 73.3724 44.7459 73.2447C45.1868 72.8073 45.628 72.3703 46.0944 71.9068Z" fill="white"/>
<path d="M50.3554 50.1523C49.2296 51.2661 48.1295 52.3539 47.0219 53.4492C46.7021 52.7669 46.8219 51.85 47.2907 51.3769C48.1788 50.4806 49.0869 49.6039 49.9625 48.6955C50.4094 48.2318 50.571 48.7181 50.8235 48.9077C51.0935 49.1105 51.2319 49.3312 50.8935 49.6124C50.7083 49.7662 50.5509 49.9539 50.3554 50.1523Z" fill="white"/>
</svg>
