<svg width="20" height="10" viewBox="0 0 20 10" fill="none" xmlns="http://www.w3.org/2000/svg">
<path d="M0.732422 10C0.530599 10 0.358073 9.92839 0.214844 9.78516C0.0716146 9.63542 0 9.45638 0 9.24805C0 9.04622 0.0716146 8.8737 0.214844 8.73047C0.358073 8.58724 0.530599 8.51562 0.732422 8.51562H19.0137C19.2155 8.51562 19.388 8.58724 19.5312 8.73047C19.681 8.8737 19.7559 9.04622 19.7559 9.24805C19.7559 9.45638 19.681 9.63542 19.5312 9.78516C19.388 9.92839 19.2155 10 19.0137 10H0.732422ZM0.732422 5.73242C0.530599 5.73242 0.358073 5.66081 0.214844 5.51758C0.0716146 5.37435 0 5.20182 0 5C0 4.79167 0.0716146 4.61589 0.214844 4.47266C0.358073 4.32292 0.530599 4.24805 0.732422 4.24805H19.0137C19.2155 4.24805 19.388 4.32292 19.5312 4.47266C19.681 4.61589 19.7559 4.79167 19.7559 5C19.7559 5.20182 19.681 5.37435 19.5312 5.51758C19.388 5.66081 19.2155 5.73242 19.0137 5.73242H0.732422ZM0.732422 1.47461C0.530599 1.47461 0.358073 1.40299 0.214844 1.25977C0.0716146 1.11654 0 0.94401 0 0.742188C0 0.533854 0.0716146 0.358073 0.214844 0.214844C0.358073 0.0716146 0.530599 0 0.732422 0H19.0137C19.2155 0 19.388 0.0716146 19.5312 0.214844C19.681 0.358073 19.7559 0.533854 19.7559 0.742188C19.7559 0.94401 19.681 1.11654 19.5312 1.25977C19.388 1.40299 19.2155 1.47461 19.0137 1.47461H0.732422Z" fill="white"/>
</svg>
